<?xml version="1.0" standalone="no"?>
<!DOCTYPE svg PUBLIC "-//W3C//DTD SVG 20010904//EN"
 "http://www.w3.org/TR/2001/REC-SVG-20010904/DTD/svg10.dtd">
<svg version="1.0" xmlns="http://www.w3.org/2000/svg"
 width="512.000000pt" height="512.000000pt" viewBox="0 0 512.000000 512.000000"
 preserveAspectRatio="xMidYMid meet">
<metadata>
Created by potrace 1.16, written by Peter Selinger 2001-2019
</metadata>
<g transform="translate(0.000000,512.000000) scale(0.100000,-0.100000)"
fill="#000000" stroke="none">
<path d="M2320 4893 c-71 -8 -207 -35 -300 -59 -121 -33 -340 -103 -340 -110
0 -3 10 -2 23 2 48 15 87 22 81 13 -3 -5 -11 -9 -18 -9 -14 0 -200 -94 -231
-117 -19 -14 -19 -15 5 -8 14 4 72 29 130 57 125 60 180 82 281 114 371 117
751 122 1129 13 435 -125 845 -384 1138 -719 116 -133 203 -262 284 -425 131
-261 173 -377 222 -617 33 -159 33 -182 2 -196 -23 -10 -25 -8 -41 40 -12 38
-13 53 -4 64 8 10 7 17 -4 29 -20 19 -27 19 -27 -1 0 -12 -7 -14 -31 -9 -24 6
-30 4 -27 -6 3 -8 15 -15 27 -17 23 -4 46 -44 52 -92 4 -32 -14 -39 -23 -8 -3
13 -6 16 -7 8 -1 -9 -19 3 -47 30 -69 68 -71 74 -38 142 l28 59 -19 34 c-18
36 -43 50 -30 18 16 -39 16 -64 1 -109 -9 -26 -16 -57 -16 -69 0 -12 33 -56
80 -108 44 -48 80 -94 80 -102 0 -8 5 -15 10 -15 6 0 10 15 10 33 0 25 6 35
27 44 15 7 28 11 30 10 1 -2 6 -85 9 -186 l7 -183 -50 53 -50 52 -7 -103 c-4
-56 -5 -105 -2 -107 3 -3 25 6 50 20 l46 26 0 -27 c0 -30 -14 -117 -31 -200
-10 -52 -11 -53 -42 -50 -29 3 -32 0 -30 -22 1 -14 -1 -19 -4 -12 -4 10 -11 8
-29 -9 -18 -17 -21 -25 -12 -30 7 -5 20 -1 30 8 29 26 21 -1 -12 -42 -17 -21
-28 -40 -26 -42 11 -12 49 23 77 70 l31 52 -7 -40 c-3 -22 -29 -107 -56 -190
-119 -354 -353 -696 -654 -955 -282 -242 -597 -413 -912 -495 -114 -29 -137
-32 -106 -10 19 13 43 81 43 122 0 15 -2 14 -16 -5 -26 -38 -43 -28 -31 18 6
22 9 42 6 45 -3 2 -29 -5 -57 -17 -54 -23 -53 -23 -126 7 -18 8 -19 5 -12 -43
7 -57 -1 -65 -35 -31 -16 16 -19 27 -14 47 13 46 12 84 -1 89 -21 8 -88 -33
-137 -86 -26 -28 -50 -51 -53 -51 -4 0 -24 14 -45 31 -47 37 -52 24 -7 -20 42
-41 68 -49 81 -25 14 27 124 134 137 134 7 0 -7 -21 -29 -46 -23 -26 -41 -53
-41 -60 0 -19 30 -18 58 2 12 8 22 11 22 5 0 -17 52 -72 64 -68 6 2 23 -2 37
-9 15 -7 49 -12 77 -11 58 2 74 -7 46 -28 -15 -11 -16 -15 -4 -16 8 -1 -14 -8
-50 -16 -41 -9 -155 -16 -310 -20 -278 -7 -286 -21 -13 -22 360 -2 646 62 950
211 516 254 936 702 1142 1221 115 289 170 673 142 1000 -26 307 -78 511 -200
777 -124 269 -247 451 -443 655 -201 210 -416 365 -693 501 -334 163 -593 225
-935 222 -96 -1 -191 -3 -210 -5z m2412 -2450 c34 -33 35 -43 5 -43 -13 0 -28
-5 -34 -11 -17 -17 -25 5 -17 46 3 19 9 35 12 35 3 0 19 -12 34 -27z m-1892
-1932 c13 -24 48 -37 63 -22 16 16 37 13 37 -6 0 -9 10 -28 23 -41 l22 -24
-25 8 c-14 4 -45 7 -70 6 -56 -3 -77 12 -85 61 -6 30 -4 37 9 37 8 0 20 -9 26
-19z"/>
<path d="M2408 4810 c-48 -30 -61 -50 -33 -50 9 0 38 -21 65 -46 l49 -45 20
20 c23 23 27 61 11 92 -17 31 -28 22 -36 -27 l-6 -45 -27 24 c-14 13 -35 27
-46 31 -20 7 -20 7 0 22 11 8 37 20 57 26 21 6 38 15 38 20 0 17 -47 6 -92
-22z"/>
<path d="M2580 4811 c-5 -11 -10 -32 -10 -48 l0 -28 23 29 c14 17 30 27 42 25
22 -5 33 -29 13 -29 -8 0 -52 -34 -99 -76 -46 -43 -106 -94 -132 -115 -26 -21
-48 -41 -47 -44 0 -3 0 -10 0 -15 0 -6 -19 -31 -41 -55 -23 -25 -37 -45 -32
-45 20 0 91 59 148 123 49 55 62 64 77 56 17 -9 17 -12 -5 -42 -14 -18 -37
-54 -52 -82 l-27 -50 41 44 41 44 0 -29 c0 -41 27 -79 46 -63 15 12 19 56 7
86 -6 13 -10 6 -14 -27 -3 -25 -8 -38 -11 -30 -23 66 -25 80 -14 95 10 14 18
10 62 -34 34 -34 59 -51 75 -50 23 0 23 1 4 12 -11 7 -51 42 -90 79 l-70 67
29 30 c17 17 35 31 42 31 16 0 114 -108 114 -126 0 -8 -2 -14 -4 -14 -3 0 -30
27 -62 60 -57 60 -74 71 -74 48 0 -15 156 -178 170 -178 12 0 2 54 -20 106
-14 34 -49 69 -120 122 -11 8 57 52 88 58 38 7 145 -21 163 -43 9 -10 6 -13
-14 -13 -14 0 -33 -7 -41 -16 -32 -31 -13 -44 38 -24 22 8 26 7 26 -9 0 -21
-15 -35 -46 -45 -18 -5 -23 2 -43 59 -13 36 -28 65 -34 65 -13 0 -67 -50 -67
-63 0 -5 17 -6 39 -2 l38 6 34 -96 c18 -53 39 -104 46 -113 11 -15 12 -11 12
28 -1 29 8 65 25 101 23 49 25 62 17 105 -11 56 -29 109 -36 102 -3 -2 -1 -18
4 -36 l9 -31 -34 16 c-29 14 -34 22 -34 50 0 41 -18 43 -26 3 -6 -27 -10 -30
-45 -30 -22 0 -38 3 -38 8 4 25 -4 40 -26 50 -37 17 -53 15 -65 -7z"/>
<path d="M2278 4794 l32 -14 -42 -43 c-41 -40 -45 -41 -76 -31 -48 16 -61 31
-33 42 20 7 21 9 7 21 -20 17 -46 -1 -46 -30 0 -41 -81 -47 -116 -8 -21 24
-37 25 -30 2 4 -13 -4 -23 -26 -36 -30 -17 -31 -17 -54 4 -13 13 -24 17 -24
11 0 -7 -9 -21 -20 -32 l-20 -20 29 0 c23 0 36 -9 58 -40 15 -22 33 -40 39
-40 12 0 53 43 84 87 8 11 29 24 45 27 24 5 26 4 12 -4 -22 -14 -50 -67 -38
-74 4 -3 14 6 22 20 25 47 112 73 126 38 7 -20 -13 -34 -51 -34 -24 0 -27 -2
-16 -15 8 -10 21 -13 37 -9 24 6 25 5 19 -27 l-7 -34 21 37 c11 20 24 39 30
43 12 7 58 -16 97 -49 l30 -25 42 30 c22 17 41 37 41 46 0 10 -14 3 -42 -21
-23 -20 -44 -36 -48 -36 -3 0 -19 13 -35 30 -15 16 -41 32 -56 35 -33 7 -35
15 -15 53 17 32 58 57 80 49 22 -9 20 5 -5 37 -15 19 -29 26 -52 25 l-32 -1
33 -14z m-244 -103 c3 -4 -6 -18 -19 -31 -20 -19 -27 -21 -40 -10 -18 15 -20
36 -2 43 20 9 55 8 61 -2z"/>
<path d="M2999 4775 c-1 -3 -3 -9 -4 -15 -1 -5 -3 -14 -4 -18 0 -4 -16 -13
-34 -20 -74 -27 -75 -33 -12 -85 79 -65 89 -63 83 18 -5 61 -4 65 16 65 11 0
28 5 36 10 11 7 5 10 -22 10 -31 0 -38 4 -38 20 0 17 -18 30 -21 15z m-7 -90
c-6 -34 -12 -36 -52 -15 l-35 18 25 11 c14 5 35 10 46 10 17 1 20 -4 16 -24z"/>
<path d="M2346 4714 c-9 -23 -7 -67 4 -84 11 -17 14 -14 27 25 8 23 15 29 34
27 l23 -2 -24 25 c-27 28 -55 33 -64 9z"/>
<path d="M3110 4717 c-21 -11 -25 -20 -25 -57 0 -50 4 -51 87 -35 33 7 40 4
60 -20 89 -106 91 -108 105 -89 23 31 16 78 -16 108 -26 25 -35 27 -87 25
l-59 -3 -9 42 c-9 45 -17 49 -56 29z m30 -42 c0 -26 -14 -33 -25 -15 -9 14 1
40 15 40 5 0 10 -11 10 -25z m158 -67 c19 -19 14 -30 -10 -26 -13 2 -24 11
-26 21 -4 20 18 23 36 5z"/>
<path d="M1658 4608 c-2 -15 -9 -22 -21 -22 -9 1 -17 -5 -17 -13 0 -11 7 -13
29 -8 26 5 32 1 62 -39 18 -25 36 -46 41 -46 11 0 10 4 -9 44 -15 32 -15 36 1
60 17 28 45 33 77 15 11 -6 25 -8 32 -6 18 6 -48 37 -77 37 -17 0 -32 -9 -43
-26 l-17 -26 -22 26 c-28 32 -32 32 -36 4z"/>
<path d="M3390 4622 c0 -4 5 -13 12 -20 9 -9 6 -17 -12 -37 -27 -29 -22 -42
11 -25 19 11 24 9 40 -11 l17 -23 46 24 c42 23 47 23 62 9 14 -15 13 -17 -13
-22 -16 -3 -47 -24 -69 -47 -21 -22 -74 -68 -116 -102 -43 -33 -78 -65 -78
-70 0 -39 63 -98 105 -98 8 0 20 -11 25 -25 12 -33 28 -32 79 6 34 24 42 35
37 53 -7 27 3 68 15 60 5 -3 9 -20 10 -37 l1 -32 13 30 c10 23 15 26 20 14 3
-9 -8 -51 -25 -93 -44 -113 -41 -124 22 -81 38 26 92 120 104 184 14 67 -65
187 -117 179 -12 -1 -24 -9 -27 -16 -2 -7 2 -10 12 -6 40 15 106 -65 106 -129
0 -52 -19 -55 -77 -13 -42 30 -52 33 -64 22 -15 -15 -73 -36 -97 -36 -9 0 -1
15 22 40 32 36 36 44 30 79 -6 35 -4 40 29 60 19 11 41 21 50 21 9 0 22 9 31
21 13 19 12 23 -7 45 -25 29 -37 30 -87 4 -49 -25 -65 -8 -24 27 27 23 23 25
-18 8 -11 -4 -22 1 -33 19 -17 25 -35 35 -35 18z m25 -352 c10 -8 24 -8 51 -1
50 14 53 8 10 -18 -44 -28 -97 -37 -125 -22 -31 17 -28 70 6 107 l27 29 8 -42
c5 -23 15 -46 23 -53z"/>
<path d="M1368 4535 c-396 -269 -672 -636 -857 -1137 -103 -278 -148 -497
-157 -758 -14 -392 46 -682 211 -1015 259 -523 709 -952 1249 -1191 188 -83
357 -138 503 -165 206 -39 533 -25 708 30 45 14 10 12 -90 -4 -49 -9 -160 -18
-245 -21 -265 -11 -469 31 -762 157 -379 163 -592 303 -854 564 -150 150 -232
249 -338 412 -79 121 -218 385 -190 362 27 -23 46 -28 72 -18 27 10 20 33 -7
24 -21 -6 -51 3 -51 16 0 4 7 6 15 3 19 -8 45 13 45 34 0 12 -3 13 -12 4 -14
-14 -52 -16 -43 -2 3 6 2 10 -4 10 -6 0 -16 -10 -22 -22 -11 -21 -16 -12 -51
92 -58 171 -81 290 -102 538 -3 34 -4 62 -2 62 13 0 46 -72 46 -99 0 -18 5
-42 11 -53 8 -14 8 -23 0 -31 -18 -18 -12 -28 10 -16 32 17 40 -1 24 -55 -23
-76 -19 -99 29 -169 l44 -65 -29 -4 c-24 -4 -28 -2 -24 13 4 10 1 28 -5 39 -9
17 -14 19 -25 10 -12 -10 -12 -16 -3 -34 7 -11 14 -39 18 -61 5 -37 7 -40 35
-39 17 1 39 5 51 9 29 9 51 -15 59 -67 14 -87 91 -147 188 -148 54 0 66 -23
21 -40 -45 -18 -73 -12 -80 15 -8 31 -24 23 -24 -11 0 -33 25 -81 49 -94 34
-18 78 -11 110 16 39 32 39 53 2 60 l-28 6 18 37 c10 21 19 50 21 67 4 40 -26
43 -98 10 -31 -14 -63 -26 -71 -26 -22 0 -81 62 -88 93 -4 15 -1 38 7 54 8 17
12 48 10 76 -4 45 -6 49 -57 79 -50 30 -55 36 -76 100 -20 63 -20 70 -6 92 14
21 14 26 2 36 -8 6 -15 34 -17 63 -3 51 -3 51 -13 19 -13 -43 -28 -44 -41 -2
-10 28 -9 37 2 43 19 11 29 74 15 104 -10 22 -17 25 -51 21 l-40 -4 0 53 c0
29 5 53 10 53 6 0 10 -7 10 -15 0 -8 5 -15 10 -15 15 0 12 18 -7 50 -15 26
-15 41 -4 152 34 348 195 791 399 1099 133 200 330 396 569 567 67 48 123 90
123 95 0 18 -33 2 -122 -58z m-918 -2051 c0 -21 -4 -33 -10 -29 -17 10 -11 65
7 65 2 0 3 -16 3 -36z m107 -410 c12 -16 38 -39 57 -49 26 -14 36 -26 36 -43
l0 -23 -27 21 c-24 19 -28 20 -31 6 -7 -35 -29 -9 -23 27 1 5 -12 25 -29 44
-40 45 -50 73 -49 131 l0 47 22 -65 c12 -36 32 -79 44 -96z m-7 -84 c0 -5 -9
-14 -20 -20 -15 -8 -20 -8 -20 3 0 8 3 17 7 20 10 10 33 8 33 -3z m340 -188
c0 -4 -7 -18 -16 -30 -16 -23 -66 -30 -94 -12 -11 7 -4 13 30 29 47 21 80 26
80 13z"/>
<path d="M3072 4588 c-12 -6 -21 -16 -19 -22 4 -11 14 -11 88 0 45 7 69 -15
44 -40 -20 -20 -39 -20 -55 -1 -7 8 -19 15 -28 15 -13 0 -12 -3 3 -20 27 -29
78 -27 104 6 34 44 5 75 -71 73 -24 0 -53 -5 -66 -11z"/>
<path d="M1834 4560 c-55 -39 -71 -81 -47 -126 28 -51 130 -154 152 -154 19 0
19 2 6 41 -8 23 -21 63 -29 90 l-15 49 24 -16 c13 -8 45 -19 72 -22 46 -7 49
-9 63 -50 8 -23 18 -42 22 -42 4 0 8 24 8 54 0 40 -6 62 -24 89 -13 19 -27 44
-30 55 -11 33 12 35 29 3 21 -42 129 -129 133 -108 8 38 -19 97 -60 131 -49
42 -59 43 -118 14 -60 -30 -63 -53 -14 -95 21 -17 36 -35 32 -38 -8 -8 -89 13
-106 28 -11 9 -11 13 4 24 16 11 14 16 -20 58 -21 25 -38 45 -39 45 -1 -1 -21
-14 -43 -30z m76 -75 c-22 -23 -22 -27 -11 -81 16 -85 14 -91 -19 -48 -26 32
-30 45 -28 83 3 43 6 47 38 58 19 7 37 12 39 12 3 1 -6 -10 -19 -24z"/>
<path d="M2240 4575 c-6 -8 -12 -30 -13 -48 -1 -34 20 -97 32 -97 12 0 73 138
67 149 -10 16 -72 13 -86 -4z"/>
<path d="M2915 4568 c-15 -12 -34 -36 -41 -54 -15 -35 -19 -84 -7 -84 3 0 30
13 59 30 l53 30 -9 -26 c-6 -14 -10 -33 -10 -42 1 -33 23 20 26 61 5 70 21 64
38 -15 22 -98 31 -110 56 -79 27 31 25 64 -6 122 -20 36 -36 52 -65 63 -51 21
-61 20 -94 -6z"/>
<path d="M1518 4523 c-21 -2 -38 -9 -38 -14 0 -18 26 -20 67 -5 l42 15 -5 -52
c-4 -38 -3 -48 5 -37 6 8 11 24 11 35 1 17 3 16 12 -5 14 -35 3 -127 -21 -174
-20 -39 -20 -79 2 -120 9 -19 11 -18 39 13 26 29 29 39 25 75 -3 22 -10 77
-15 121 -12 99 -37 156 -66 153 -12 -1 -38 -3 -58 -5z"/>
<path d="M3222 4448 c-8 -67 -15 -86 -34 -101 l-23 -19 -3 46 c-2 28 3 59 12
78 22 42 12 48 -13 8 -25 -42 -34 -91 -21 -124 12 -34 30 -33 64 3 22 23 33
28 50 22 34 -13 81 6 116 45 25 29 29 39 18 45 -21 14 -44 10 -70 -10 l-25
-20 -22 55 c-13 29 -26 54 -31 54 -4 0 -12 -37 -18 -82z"/>
<path d="M1355 4446 c-11 -8 -18 -25 -17 -44 1 -43 10 -55 38 -48 17 5 26 1
34 -15 7 -13 18 -19 29 -16 40 10 64 -18 83 -94 11 -44 27 -82 40 -94 21 -20
21 -20 13 0 -21 54 -44 123 -47 144 -2 20 2 26 22 31 20 5 25 12 25 35 0 38
-38 54 -84 35 -33 -13 -46 -48 -13 -35 41 16 69 16 81 1 19 -22 -8 -31 -61
-20 -91 20 -80 89 14 82 41 -2 46 -1 31 10 -24 18 -73 15 -109 -7 -17 -10 -40
-22 -52 -25 -19 -7 -22 -4 -22 23 0 21 5 31 15 31 8 0 15 5 15 10 0 14 -13 13
-35 -4z"/>
<path d="M1671 4424 c-34 -43 -27 -64 47 -151 51 -60 79 -73 34 -15 -16 20
-34 47 -41 60 -10 19 -9 22 9 22 12 0 35 -7 51 -16 17 -8 33 -13 36 -10 11 11
-30 87 -60 112 -36 31 -51 30 -76 -2z"/>
<path d="M3700 4416 c40 -15 45 -26 31 -85 -12 -53 -10 -51 32 32 l34 67 -66
-1 c-65 -1 -66 -1 -31 -13z"/>
<path d="M2435 4371 c-214 -48 -509 -137 -589 -178 -16 -8 -53 -35 -83 -59
-29 -24 -58 -44 -62 -44 -5 0 -32 -16 -60 -35 -43 -30 -58 -35 -89 -30 -30 4
-33 3 -14 -4 29 -13 28 -25 -4 -46 -48 -31 -104 -87 -104 -104 0 -9 -15 -27
-32 -41 -56 -43 -118 -102 -118 -112 0 -16 -41 -69 -50 -63 -9 6 -35 -53 -27
-62 4 -3 13 0 22 7 13 11 15 9 15 -14 0 -24 -3 -26 -46 -26 -61 0 -79 -20
-176 -196 -108 -194 -177 -385 -214 -593 -17 -91 -22 -105 -45 -116 -37 -20
-97 -84 -109 -118 -9 -28 -7 -33 31 -69 22 -21 58 -49 78 -62 35 -23 39 -29
56 -111 17 -81 20 -88 54 -109 45 -29 58 -44 66 -78 5 -21 1 -33 -20 -53 -23
-24 -25 -30 -15 -59 16 -49 98 -184 118 -195 10 -5 41 -49 70 -98 80 -134 176
-257 292 -374 130 -130 170 -163 290 -232 52 -30 112 -64 133 -77 61 -36 42
-15 -29 30 -55 37 -63 45 -51 57 19 20 39 9 87 -48 22 -27 47 -49 55 -49 7 0
33 -9 57 -19 40 -17 46 -17 54 -3 6 8 16 13 23 11 11 -4 10 -8 -3 -22 -16 -15
-10 -18 85 -48 76 -23 112 -30 144 -26 34 5 44 3 49 -10 5 -12 15 -14 47 -9
31 5 40 3 37 -6 -11 -34 -170 -13 -322 43 -43 16 -81 28 -83 25 -5 -4 127 -53
228 -84 168 -52 405 -56 642 -10 44 8 61 16 67 32 5 12 9 15 9 9 1 -23 56 -14
176 27 251 87 554 270 721 436 50 50 97 102 104 115 6 13 -21 -10 -62 -52 -93
-97 -170 -161 -282 -233 -113 -73 -257 -149 -265 -140 -3 4 0 9 7 11 30 11
152 79 204 115 39 26 65 53 79 81 12 23 60 83 107 132 233 245 435 690 461
1015 18 216 -23 518 -95 704 -19 50 -73 165 -120 254 -59 115 -86 178 -89 210
-5 42 -4 44 6 20 14 -36 27 -35 31 1 3 27 5 28 22 15 18 -13 19 -15 2 -33 -20
-22 -7 -36 34 -36 18 0 25 -5 25 -20 0 -30 -32 -30 -70 0 -19 14 -35 21 -35
16 0 -6 25 -52 56 -103 162 -266 228 -473 256 -795 15 -181 1 -332 -42 -464
-17 -49 -30 -95 -30 -101 0 -6 10 -22 22 -35 21 -23 21 -23 1 -23 -40 0 -63
-33 -101 -147 -32 -94 -36 -113 -23 -115 10 -2 2 -11 -22 -25 -38 -23 -40 -29
-28 -73 9 -31 11 -29 -136 -178 -68 -68 -123 -128 -123 -132 0 -4 -16 -17 -35
-29 -33 -19 -48 -51 -24 -51 37 0 198 158 316 310 64 82 83 120 83 164 0 47 9
66 31 66 23 0 62 65 85 143 10 31 22 57 27 57 16 0 0 -67 -36 -150 -19 -44
-31 -78 -27 -75 14 8 71 138 82 186 10 42 9 50 -9 73 -25 32 -37 90 -24 114 9
15 10 14 11 -8 0 -35 19 -100 29 -100 11 0 35 126 26 139 -3 6 -17 11 -31 11
-35 0 -30 27 6 35 43 9 51 33 49 144 -1 61 3 107 11 121 10 18 9 29 -6 62 -13
29 -15 41 -6 50 17 17 15 61 -5 110 -9 24 -17 66 -18 95 l0 52 -21 -20 -21
-20 -13 63 c-6 35 -19 83 -27 108 -9 25 -22 65 -30 90 -12 41 -12 44 3 28 9
-9 31 -59 48 -113 18 -53 36 -97 42 -98 18 -4 15 44 -6 108 -12 36 -20 71 -17
78 6 16 20 -21 59 -157 39 -140 59 -140 23 0 -32 121 -58 183 -82 190 -38 11
-67 30 -86 56 -31 42 -14 44 39 4 26 -20 51 -36 56 -36 17 0 -144 300 -216
401 -141 200 -351 409 -542 540 -124 85 -170 111 -120 68 30 -27 29 -50 -2
-44 -9 2 -30 7 -46 10 l-29 6 22 23 c27 29 27 32 -10 45 -39 13 -49 14 -29 1
18 -11 13 -16 -25 -26 l-30 -7 20 22 c16 19 17 24 5 32 -8 5 -32 7 -52 3 -30
-4 -38 -2 -38 9 0 8 -7 17 -15 20 -12 5 -12 2 -3 -21 18 -42 25 -47 54 -33 24
11 26 10 15 -3 -11 -13 -5 -19 39 -43 69 -37 299 -204 330 -239 14 -15 -6 -2
-45 28 -98 78 -232 163 -319 204 -171 79 -461 140 -621 132 -105 -6 -363 -64
-510 -115 -187 -64 -421 -207 -542 -330 -52 -52 -64 -60 -71 -46 -14 23 -35 7
-22 -17 7 -14 7 -21 -3 -27 -8 -4 -17 -15 -20 -23 -4 -10 -6 -7 -6 8 -1 12 -7
22 -15 22 -8 0 -22 -10 -31 -22 -10 -13 -15 -18 -14 -12 8 26 83 97 132 126
29 16 81 54 117 83 163 132 357 236 530 285 105 30 125 39 125 55 0 14 -9 21
-30 25 l-30 6 28 7 c15 4 36 3 46 -3 15 -7 30 -4 66 16 25 15 48 24 51 21 3
-3 -14 -15 -37 -28 -23 -13 -49 -35 -58 -48 -15 -24 -15 -24 9 -18 14 4 88 19
165 33 133 25 146 25 265 14 74 -7 167 -24 230 -42 160 -45 149 -43 143 -19
-5 21 -50 42 -160 74 -46 14 -53 14 -53 1 0 -20 -17 -17 -30 5 -5 11 -10 22
-10 24 0 6 87 -15 178 -42 41 -13 76 -21 78 -18 2 2 -44 18 -104 36 -59 18
-119 36 -133 41 -22 7 -27 4 -36 -21 -15 -38 -33 -37 -69 5 -26 29 -39 35 -90
41 -32 3 -69 10 -82 16 -13 5 -24 9 -25 8 -1 0 -38 -8 -82 -18z m213 -27 c23
-4 32 -10 32 -24 0 -31 -20 -34 -49 -6 -30 29 -62 34 -81 11 -7 -8 -18 -15
-26 -15 -15 0 -37 34 -28 43 6 5 89 0 152 -9z m-193 -29 c0 -11 -7 -21 -16
-23 -18 -3 -33 23 -23 39 10 17 39 5 39 -16z m-70 -11 c0 -10 -8 -20 -17 -22
-18 -3 -26 27 -11 42 12 11 28 0 28 -20z m-260 -34 c-3 -5 -16 -10 -28 -9 -20
1 -20 2 3 9 14 4 26 8 28 9 2 1 0 -3 -3 -9z m-61 -18 c-6 -4 -16 -16 -22 -27
-11 -20 -11 -20 -12 2 0 20 11 31 35 32 6 0 5 -2 -1 -7z m708 -31 c131 -23
283 -73 416 -138 103 -50 313 -186 352 -228 14 -15 -31 10 -100 55 -207 135
-384 210 -620 260 -137 30 -364 32 -485 6 -175 -38 -511 -181 -663 -282 -90
-61 -322 -278 -391 -368 -75 -97 -129 -205 -180 -362 -75 -226 -101 -365 -108
-569 -10 -312 40 -536 179 -805 77 -149 150 -250 271 -377 54 -56 96 -107 92
-113 -8 -13 -51 -13 -76 0 -14 8 -18 17 -13 36 5 21 -3 33 -57 83 -40 36 -82
89 -112 140 -27 45 -64 93 -82 108 -27 21 -33 32 -29 53 6 28 -53 154 -71 152
-15 -2 -18 -48 -4 -74 7 -13 14 -31 16 -42 9 -50 105 -195 141 -211 24 -11 29
-25 10 -25 -7 0 29 -41 81 -90 51 -49 90 -93 86 -99 -10 -17 -36 1 -100 71
-107 115 -255 336 -255 380 0 7 -17 22 -37 33 -29 16 -47 40 -87 115 -27 52
-43 89 -35 83 13 -11 18 -5 32 41 20 61 21 94 7 132 -6 14 -19 81 -30 147 -11
66 -21 121 -23 123 -7 7 -57 -48 -57 -63 0 -9 5 -45 11 -80 9 -52 17 -68 40
-85 34 -25 37 -38 9 -38 -37 0 -56 33 -74 127 -14 68 -15 96 -7 111 15 28 14
37 -3 23 -11 -9 -15 -7 -19 8 -3 11 -3 22 0 25 3 3 5 51 4 108 -1 61 4 133 14
178 18 89 84 322 94 332 8 9 51 -19 51 -33 0 -5 -9 -9 -19 -9 -22 0 -62 -92
-87 -198 -13 -56 -13 -67 -1 -79 12 -12 15 -8 20 32 4 25 18 75 33 111 14 36
23 75 20 86 -5 20 -4 20 11 5 16 -15 15 -21 -10 -82 -15 -36 -32 -98 -37 -138
-8 -58 -15 -75 -35 -90 -34 -26 -33 -72 2 -109 32 -33 21 -58 -17 -38 -20 11
-21 10 -15 -12 6 -22 52 -68 68 -68 4 0 7 39 7 88 0 102 10 172 50 342 42 177
63 248 94 308 18 35 24 60 20 77 -5 21 -3 25 16 25 17 0 20 -4 14 -17 -57
-133 -136 -413 -155 -558 -18 -135 -7 -387 21 -505 26 -107 27 -123 9 -197
-17 -68 -2 -116 54 -178 l42 -47 2 49 c1 31 -10 85 -32 153 -74 230 -97 561
-56 802 35 204 123 463 212 625 47 85 73 117 199 243 160 161 237 222 379 303
161 91 435 197 596 231 101 21 272 20 407 -3z m-767 -11 c0 -17 -35 -25 -74
-15 l-26 7 25 14 c31 17 75 14 75 -6z m-117 -30 c-7 -11 -19 -20 -27 -20 -8 0
-37 -22 -66 -49 -34 -33 -67 -53 -96 -61 -24 -7 -53 -19 -64 -28 -19 -16 -19
-16 -6 1 15 19 71 52 71 42 0 -9 59 33 100 70 28 26 83 62 98 65 1 0 -3 -9
-10 -20z m895 -31 c128 -25 340 -95 449 -148 200 -96 440 -290 570 -461 68
-89 195 -348 245 -500 67 -201 78 -274 78 -515 0 -189 -2 -219 -24 -300 -101
-388 -368 -804 -651 -1017 -113 -85 -328 -198 -460 -241 -147 -49 -563 -77
-695 -47 -62 14 -255 82 -351 123 -126 54 -364 177 -364 188 0 5 -7 9 -15 9
-19 0 -20 36 -1 43 8 3 25 -2 38 -12 33 -26 274 -156 371 -201 333 -154 603
-172 989 -66 325 90 526 221 705 460 131 175 290 463 351 638 60 169 84 388
63 573 -13 112 -98 470 -136 570 -92 245 -359 541 -595 660 -88 44 -378 149
-504 182 -137 35 -375 44 -528 18 -284 -47 -531 -178 -748 -395 -216 -216
-271 -282 -325 -390 -24 -48 -10 -32 70 80 37 52 78 104 89 115 12 11 53 55
91 98 164 186 414 355 625 421 132 42 214 57 350 63 198 9 359 -20 605 -110
223 -82 271 -111 443 -270 186 -172 274 -276 338 -400 51 -100 94 -205 94
-231 0 -6 -24 36 -53 94 -69 137 -188 310 -213 310 -7 0 2 -15 64 -98 71 -96
173 -294 211 -407 90 -272 104 -566 36 -800 -72 -247 -281 -608 -454 -783
-288 -292 -625 -433 -1034 -433 -182 0 -323 34 -542 134 -390 176 -611 387
-797 761 -89 177 -115 279 -129 496 -23 358 34 699 161 965 60 126 91 169 235
321 117 124 274 253 365 299 70 36 342 148 423 175 164 54 383 65 560 29z
m643 -81 c34 -22 44 -33 32 -36 -19 -4 -98 43 -98 58 0 16 13 12 66 -22z m209
-175 c61 -60 130 -132 155 -160 25 -28 52 -53 60 -55 12 -4 13 -9 3 -31 -19
-40 -41 -33 -66 21 -44 94 -65 120 -92 114 -14 -2 -32 1 -40 8 -36 30 -9 -6
65 -87 44 -48 80 -94 80 -102 0 -9 -21 9 -47 39 -26 30 -77 86 -115 123 -37
37 -62 65 -55 61 6 -4 5 1 -4 12 -27 32 -52 93 -45 111 4 11 -4 28 -26 52 -72
77 19 1 127 -106z m-2080 52 c-33 -30 -69 -60 -80 -65 -11 -6 11 19 50 55 38
36 74 65 80 65 5 0 -17 -25 -50 -55z m-240 -285 c-12 -20 -64 -50 -70 -41 -3
6 11 19 32 30 44 24 46 24 38 11z m-117 -132 c-3 -7 -11 -13 -18 -13 -7 0 -15
6 -17 13 -3 7 4 12 17 12 13 0 20 -5 18 -12z m-82 -48 c-13 -34 -14 -40 -2
-40 8 0 18 9 21 20 7 23 45 27 45 5 0 -9 -14 -24 -32 -33 -50 -26 -87 -70
-102 -121 -8 -25 -19 -45 -25 -44 -6 2 -11 -4 -11 -13 0 -8 5 -12 10 -9 6 3
10 1 10 -5 0 -6 -14 -16 -30 -22 -29 -10 -50 -34 -50 -57 0 -6 6 -8 13 -5 9 3
13 -6 14 -30 1 -35 1 -35 -23 -19 -13 8 -24 23 -24 33 0 33 187 396 198 385 3
-2 -3 -22 -12 -45z m2884 -5 c20 -24 6 -28 -15 -5 -10 11 -13 20 -8 20 6 0 16
-7 23 -15z m-10 -54 c0 -5 -6 -14 -14 -20 -11 -9 -16 -9 -21 0 -4 6 -1 15 6
20 18 11 29 11 29 0z m53 -15 c6 -16 -11 -36 -30 -36 -14 0 -16 10 -7 34 8 20
30 21 37 2z m-2919 -40 c-3 -9 -12 -16 -20 -16 -18 0 -18 5 2 25 19 19 27 15
18 -9z m2981 -76 c41 -81 40 -80 18 -80 -13 0 -23 15 -33 47 -17 53 -44 77
-61 53 -9 -13 -10 -12 -5 3 4 12 0 17 -12 17 -15 1 -15 2 2 15 38 28 54 18 91
-55z m115 -562 c0 -13 -17 -9 -30 7 -6 8 -8 20 -4 26 5 9 11 7 21 -6 7 -11 13
-22 13 -27z m-2 -50 c7 -7 12 -16 12 -22 0 -6 -5 -5 -11 1 -6 6 -18 9 -25 6
-14 -5 -19 8 -7 20 9 10 17 9 31 -5z m-3338 -29 c0 -17 -4 -28 -10 -24 -5 3
-10 17 -10 31 0 13 5 24 10 24 6 0 10 -14 10 -31z m-104 -56 c-11 -11 -19 6
-11 24 8 17 8 17 12 0 3 -10 2 -21 -1 -24z m3442 -1 c2 -7 -3 -12 -12 -12 -9
0 -16 7 -16 16 0 17 22 14 28 -4z m-3471 -44 c3 -22 2 -22 -12 2 -17 30 -19
48 -3 32 6 -6 13 -22 15 -34z m-27 -9 c0 -5 -4 -9 -10 -9 -5 0 -10 7 -10 16 0
8 5 12 10 9 6 -3 10 -10 10 -16z m60 6 c0 -8 -4 -15 -10 -15 -5 0 -10 7 -10
15 0 8 5 15 10 15 6 0 10 -7 10 -15z m3460 -18 c0 -7 -6 -19 -12 -25 -10 -10
-10 -17 0 -32 17 -27 -3 -25 -22 2 -20 28 -20 33 0 52 19 19 34 21 34 3z
m-3522 -28 c-2 -6 -8 -10 -13 -10 -5 0 -11 4 -13 10 -2 6 4 11 13 11 9 0 15
-5 13 -11z m41 -3 c9 -10 8 -16 -4 -26 -13 -11 -15 -8 -15 14 0 30 3 32 19 12z
m17 -73 c-11 -11 -19 6 -11 24 8 17 8 17 12 0 3 -10 2 -21 -1 -24z m3449 7 c4
-6 1 -18 -6 -26 -10 -12 -14 -12 -20 -2 -5 7 -9 19 -9 26 0 15 26 16 35 2z
m-3321 -85 c4 -10 -1 -15 -14 -15 -20 0 -26 11 -13 23 10 11 20 8 27 -8z
m3300 -6 c-6 -11 -24 -2 -24 11 0 5 7 7 15 4 8 -4 12 -10 9 -15z m5 -44 c-13
-19 -25 -30 -27 -25 -4 11 39 72 46 65 3 -2 -6 -20 -19 -40z m-13 -162 c-13
-24 -15 -25 -16 -7 0 11 5 25 12 32 19 19 21 6 4 -25z m-3173 -133 c3 -13 0
-20 -8 -20 -18 0 -28 17 -21 36 7 19 22 11 29 -16z m3117 -24 c0 -2 -3 -11 -6
-20 -9 -23 -34 -20 -34 4 0 13 7 20 20 20 11 0 20 -2 20 -4z m-3092 -49 c4
-20 -25 -34 -40 -19 -15 15 -1 44 19 40 10 -2 19 -11 21 -21z m3062 -25 c0
-15 -2 -15 -10 -2 -13 20 -13 33 0 25 6 -3 10 -14 10 -23z m-33 -38 c8 -21
-13 -42 -28 -27 -13 13 -5 43 11 43 6 0 13 -7 17 -16z m-2575 -613 c2 -5 29
-30 61 -55 38 -32 57 -42 57 -32 0 26 18 18 35 -14 9 -16 12 -30 8 -30 -35 1
-215 139 -181 140 9 0 18 -4 20 -9z m388 -217 c0 -8 -4 -14 -9 -14 -11 0 -22
26 -14 34 9 9 23 -3 23 -20z m1358 -16 c-3 -7 -11 -13 -18 -13 -7 0 -15 6 -17
13 -3 7 4 12 17 12 13 0 20 -5 18 -12z m-89 -32 c-16 -15 -169 -75 -213 -83
-54 -10 -23 20 40 37 32 10 86 29 119 43 61 26 80 27 54 3z m-1099 -10 c0 -3
-4 -8 -10 -11 -5 -3 -10 -1 -10 4 0 6 5 11 10 11 6 0 10 -2 10 -4z m92 -41 c0
-5 -5 -11 -11 -13 -6 -2 -11 4 -11 13 0 9 5 15 11 13 6 -2 11 -8 11 -13z m666
-44 c11 -7 10 -10 -3 -15 -30 -11 -65 -7 -65 9 0 17 46 21 68 6z m-98 -15 c0
-8 -17 -16 -46 -20 -74 -10 -202 -7 -209 5 -12 18 4 23 32 8 20 -11 27 -11 30
-2 3 9 23 10 66 7 34 -3 73 -1 87 4 34 14 40 14 40 -2z m-330 -27 c0 -5 -7 -9
-15 -9 -15 0 -20 12 -9 23 8 8 24 -1 24 -14z"/>
<path d="M1482 1328 c6 -18 28 -21 28 -4 0 9 -7 16 -16 16 -9 0 -14 -5 -12
-12z"/>
<path d="M2379 4035 c-169 -27 -361 -86 -484 -149 -62 -32 -102 -63 -180 -141
-55 -55 -132 -140 -170 -190 -38 -49 -100 -124 -138 -165 -102 -112 -201 -325
-238 -509 -12 -64 -4 -211 12 -211 5 0 9 9 9 20 0 10 8 24 17 29 17 10 17 10
-1 11 -17 0 -18 7 -14 83 5 97 28 151 77 184 47 31 51 29 35 -17 -12 -34 -12
-46 -1 -73 15 -35 63 -76 121 -103 41 -20 48 -39 11 -30 -57 14 -113 -13 -207
-100 -49 -46 -93 -84 -98 -84 -5 0 -16 -10 -24 -22 -13 -20 -13 -41 0 -167 8
-79 12 -146 10 -149 -5 -4 -26 65 -26 86 0 7 -5 10 -11 7 -13 -8 -7 -37 37
-185 74 -245 128 -368 234 -530 77 -116 156 -200 274 -289 255 -192 424 -274
651 -317 165 -30 435 -9 650 52 334 95 674 378 871 726 93 163 177 417 174
525 -1 27 2 65 6 86 4 22 3 37 -3 37 -5 0 -18 -36 -28 -80 -10 -44 -20 -78
-22 -76 -2 2 -1 46 3 97 7 93 7 94 47 133 35 33 38 40 24 48 -10 5 -29 19 -43
31 -24 21 -25 28 -28 142 -4 139 -33 261 -96 412 -67 161 -259 439 -390 566
-78 75 -228 187 -251 187 -6 0 34 -34 88 -76 131 -102 211 -181 292 -289 90
-119 90 -120 51 -100 -41 21 -163 31 -213 17 -34 -9 -38 -9 -33 5 19 48 28
110 24 163 l-4 60 31 -30 c17 -16 34 -30 38 -30 39 0 -209 217 -303 265 -71
36 -211 85 -329 115 -161 42 -296 49 -452 25z m116 -14 c-3 -5 -25 -20 -49
-34 -31 -17 -48 -22 -60 -15 -27 15 -81 -9 -120 -53 -20 -21 -36 -43 -36 -48
0 -5 -13 -3 -28 5 -16 7 -43 17 -60 20 -29 6 -33 3 -76 -64 l-44 -70 -41 11
c-33 9 -50 8 -84 -3 -49 -18 -64 -50 -22 -50 39 0 91 -25 110 -53 10 -16 15
-41 13 -69 l-3 -43 -18 57 c-19 64 -40 82 -100 91 -34 5 -38 3 -54 -26 -23
-46 -29 -172 -10 -219 8 -20 13 -39 10 -42 -13 -13 -74 42 -89 81 -41 106 54
292 170 334 20 7 36 17 36 21 0 4 -2 8 -4 8 -14 0 -87 -36 -114 -57 -46 -35
-116 -125 -103 -133 8 -4 6 -22 -5 -54 -15 -44 -15 -98 0 -136 5 -13 -4 -14
-59 -12 -38 2 -85 -2 -115 -11 l-51 -15 17 26 c86 133 246 303 346 368 140 92
373 162 636 193 7 0 11 -3 7 -8z m153 -81 c69 -52 122 -124 122 -165 0 -13 7
-8 23 15 29 44 151 109 175 94 19 -12 74 -161 67 -184 -2 -8 -7 -30 -10 -49
l-7 -35 33 29 c38 32 145 85 171 85 24 0 13 25 -18 39 -14 6 -47 11 -74 11
-38 0 -52 -5 -63 -21 -14 -19 -15 -17 -27 33 -17 71 -36 114 -53 121 -11 4
-48 -6 -98 -27 -12 -5 -22 2 -37 26 -31 49 -58 62 -138 64 -48 1 -80 8 -98 19
-58 38 -21 39 164 3 230 -44 395 -111 496 -201 92 -83 121 -172 90 -279 -15
-54 -53 -114 -64 -103 -3 3 -4 52 -3 109 2 88 -1 110 -18 144 -27 52 -33 55
-82 41 -60 -18 -99 -59 -99 -103 0 -20 -2 -36 -4 -36 -2 0 -28 11 -57 24 l-52
25 2 79 c2 55 -3 91 -15 121 -15 38 -20 42 -42 36 -61 -15 -153 -98 -156 -139
-2 -45 -26 -30 -26 17 0 59 -46 135 -109 182 -28 20 -60 48 -71 62 l-20 25
-64 -51 c-36 -29 -85 -75 -110 -103 -41 -45 -46 -55 -46 -99 0 -58 -15 -64
-30 -11 -5 21 -20 48 -33 60 -26 24 -87 52 -116 52 -28 0 -42 -50 -39 -144 4
-101 -13 -110 -37 -20 l-18 66 29 60 c16 33 31 61 35 64 4 2 31 -4 60 -13 30
-9 60 -18 68 -19 8 -2 25 -15 37 -31 17 -20 23 -23 24 -12 0 24 109 134 181
184 58 40 64 42 75 26 7 -10 44 -41 82 -71z m-80 -21 c16 -34 37 -59 64 -77
66 -44 98 -78 98 -106 0 -38 -26 -32 -40 9 -15 45 -31 44 -69 -2 l-31 -38 -1
45 -1 45 -11 -32 c-23 -61 -29 -48 -22 42 8 111 -8 106 -28 -8 l-13 -78 -22
47 -23 47 -58 -57 c-31 -31 -60 -54 -63 -50 -15 14 18 67 75 121 34 32 73 78
87 101 13 23 27 42 30 42 3 0 16 -23 28 -51z m-205 15 c-18 -13 -45 -40 -60
-59 -21 -25 -32 -32 -43 -25 -12 8 -12 13 6 37 27 36 81 73 108 73 18 0 17 -3
-11 -26z m415 15 c17 -6 42 -25 56 -44 l26 -33 -25 -16 c-24 -16 -25 -16 -25
7 0 38 -27 65 -67 69 -20 2 -38 9 -41 16 -5 15 34 16 76 1z m161 -179 c14 -65
14 -143 1 -135 -5 3 -10 22 -10 41 0 42 -15 45 -24 3 -9 -46 -30 -30 -41 32
l-10 54 -3 -47 c-3 -45 -22 -70 -22 -29 0 52 14 83 49 107 19 13 39 24 42 24
4 0 12 -23 18 -50z m-759 18 c0 -7 -5 -20 -10 -28 -8 -12 -10 -9 -10 13 0 15
5 27 10 27 6 0 10 -6 10 -12z m51 -54 c12 -25 18 -48 15 -51 -7 -7 -7 -8 -29
37 l-18 35 6 -42 c4 -35 2 -44 -14 -53 -33 -17 -41 -12 -41 26 0 26 8 44 28
64 15 15 28 28 30 29 2 0 12 -20 23 -45z m589 -8 c-5 -15 -8 -32 -4 -37 3 -5
0 -9 -6 -9 -20 0 -22 30 -5 56 21 32 29 26 15 -10z m-752 -76 l22 -33 -30 -19
c-17 -10 -33 -18 -35 -18 -3 0 -5 25 -5 56 0 64 12 67 48 14z m641 25 c275
-53 552 -209 687 -388 116 -155 263 -529 204 -520 -14 3 -15 -16 -12 -150 7
-267 -36 -480 -118 -589 -18 -24 -30 -36 -27 -28 4 8 27 67 53 130 28 67 48
132 48 155 1 36 -2 40 -26 43 -15 2 -37 -2 -49 -9 -21 -11 -22 -10 -15 22 22
112 28 188 23 309 -3 74 -8 144 -13 155 -7 19 -7 19 12 3 11 -10 35 -19 54
-20 l35 -3 0 55 c-1 130 -105 332 -240 465 -134 131 -363 258 -562 309 -236
61 -503 28 -698 -86 -113 -66 -251 -173 -293 -227 -53 -66 -176 -273 -201
-339 -26 -65 -29 -157 -5 -166 8 -3 28 1 43 8 l28 15 -14 -72 c-15 -74 -13
-352 2 -390 7 -16 4 -18 -26 -12 -48 8 -62 -5 -57 -51 7 -58 55 -230 73 -262
9 -15 14 -20 11 -12 -38 116 -47 152 -43 167 3 12 12 1 29 -38 37 -80 75 -122
104 -115 12 3 25 2 29 -3 3 -5 -5 -11 -17 -13 -37 -5 -35 -50 3 -111 66 -104
113 -158 183 -211 99 -74 117 -82 128 -62 14 25 28 19 28 -13 0 -49 81 -92
244 -132 116 -27 126 -26 126 14 l0 32 26 -32 c28 -36 63 -43 88 -17 41 41 2
80 -71 71 -55 -6 -191 23 -275 59 -35 14 -100 39 -146 55 -94 34 -177 81 -193
111 -6 11 -9 22 -6 24 3 3 46 -22 97 -55 51 -34 97 -61 104 -60 6 0 0 8 -14
17 -13 9 -52 38 -85 63 -61 46 -116 79 -133 79 -5 0 -13 -10 -17 -22 -6 -21
-8 -19 -26 19 -15 34 -17 46 -8 61 9 14 7 27 -10 60 -23 45 -26 56 -12 48 5
-3 -8 25 -27 62 -20 37 -37 83 -38 103 -1 19 -6 44 -12 55 -34 65 -47 150 -46
324 1 247 25 329 155 541 64 103 147 196 226 251 63 43 199 105 268 123 222
55 533 27 698 -62 57 -31 189 -144 233 -199 17 -22 43 -59 58 -84 l27 -45 -38
45 c-150 179 -259 261 -411 311 -89 30 -110 33 -258 37 -184 5 -280 -10 -401
-60 -190 -78 -371 -251 -453 -432 -60 -131 -96 -327 -87 -465 7 -103 60 -289
117 -405 l38 -78 7 41 c10 63 43 104 98 122 41 14 46 18 32 29 -10 8 -30 11
-58 7 -32 -4 -51 -15 -79 -46 l-38 -40 -8 32 c-9 32 -8 32 51 61 36 18 67 42
78 60 29 47 23 51 -15 12 -39 -42 -75 -47 -106 -14 -31 33 -27 49 10 35 22 -8
35 -9 48 -1 53 33 29 118 -31 112 -27 -2 -36 -11 -55 -48 -21 -43 -22 -63 -6
-135 4 -16 3 -17 -4 -5 -18 29 -54 204 -59 291 -7 103 15 241 58 367 62 185
168 310 365 431 102 62 282 121 371 121 l27 0 -32 -32 c-17 -18 -38 -50 -47
-71 -15 -36 -15 -41 2 -75 26 -51 48 -56 39 -8 -5 28 -1 49 18 91 31 69 40 71
15 5 -10 -28 -19 -74 -19 -102 0 -39 -5 -57 -22 -75 -33 -35 -47 -30 -41 16
14 103 -132 198 -197 129 -29 -31 -52 -118 -31 -118 5 0 12 16 16 36 8 43 45
84 77 84 36 0 83 -34 101 -73 20 -41 22 -88 5 -105 -18 -18 -27 -15 -21 8 3
11 2 28 -3 37 -6 14 -9 10 -13 -17 -6 -32 -13 -39 -91 -80 -114 -60 -187 -134
-239 -242 -105 -217 -92 -428 39 -649 80 -135 177 -218 297 -254 65 -20 242
-19 318 0 33 9 84 27 114 41 87 39 70 20 -21 -25 -103 -50 -210 -67 -322 -52
-105 15 -174 44 -273 115 -49 35 -102 70 -120 80 -18 9 -37 25 -43 36 -14 26
-55 26 -97 0 -40 -24 -59 -53 -72 -110 -10 -40 -8 -47 10 -62 32 -27 139 -24
195 4 49 24 58 43 18 35 -14 -2 -39 0 -55 6 -26 10 -32 9 -55 -16 -18 -19 -34
-27 -57 -26 -29 1 -30 2 -7 8 19 4 26 14 28 36 5 37 36 91 59 99 9 4 23 0 32
-9 14 -13 14 -15 0 -15 -18 0 -50 -33 -69 -70 -10 -19 -3 -16 33 18 51 46 72
52 80 22 3 -11 13 -20 24 -20 10 0 57 -26 105 -58 153 -103 375 -152 470 -103
l36 18 -9 -25 c-6 -14 -23 -44 -39 -66 -36 -49 -29 -64 9 -18 l28 32 12 -41
c15 -50 52 -89 83 -89 21 0 20 2 -9 20 -25 15 -36 32 -48 74 -23 77 -14 97 63
150 37 25 106 82 153 128 70 68 94 100 131 173 125 244 124 415 -4 629 -70
118 -169 202 -300 256 -32 13 -58 27 -58 32 0 4 -13 5 -28 2 -44 -9 -62 16
-62 87 0 50 -6 72 -36 127 l-35 67 52 3 c131 8 371 -84 504 -193 60 -49 184
-178 222 -232 77 -108 126 -385 101 -565 -12 -86 -23 -114 -34 -83 -13 37 -36
55 -71 55 -39 0 -73 -29 -73 -64 0 -36 25 -50 86 -49 62 2 68 -9 22 -37 -47
-28 -92 -26 -112 5 -27 41 -39 28 -14 -16 26 -46 81 -99 103 -99 8 0 15 -5 15
-10 0 -27 -83 -172 -126 -219 -79 -87 -250 -218 -349 -266 -86 -42 -279 -104
-290 -93 -3 3 2 21 10 41 8 20 15 59 15 86 0 42 -5 56 -36 93 -20 23 -39 44
-43 46 -4 1 -12 -10 -19 -25 -6 -16 -23 -44 -38 -63 -31 -42 -28 -72 15 -134
l29 -42 -64 8 c-86 12 -222 52 -287 84 -154 78 -291 218 -387 398 -69 128 -78
132 -20 8 22 -47 38 -87 35 -90 -8 -8 36 -64 119 -151 123 -127 226 -191 379
-235 88 -26 275 -51 305 -42 9 3 43 8 75 11 68 6 183 51 264 105 112 74 297
234 340 295 60 85 126 242 154 365 35 152 33 353 -5 495 -30 116 -104 274
-169 361 -58 79 -168 173 -257 221 -38 21 -70 41 -70 44 0 8 47 29 65 29 8 0
34 -21 58 -47 25 -27 83 -91 132 -142 193 -210 264 -357 295 -616 28 -228 -45
-536 -163 -690 -40 -52 -53 -64 -170 -169 -54 -49 -95 -91 -92 -94 3 -3 20 8
38 24 17 17 71 62 119 102 85 70 87 71 108 54 21 -17 22 -18 3 -41 -14 -17
-25 -22 -41 -17 -12 4 -22 12 -22 17 0 6 -26 -12 -57 -40 -32 -27 -69 -59 -83
-69 -24 -19 -24 -21 -7 -39 23 -26 22 -29 -10 -28 -20 0 -28 -6 -33 -25 l-7
-25 -7 30 c-4 17 -9 34 -10 39 -1 6 -23 -9 -47 -32 -72 -65 -153 -109 -238
-128 -84 -18 -113 -34 -64 -34 18 0 34 -4 37 -9 6 -10 -92 -47 -100 -38 -2 2
-6 18 -7 36 -1 17 -8 31 -14 31 -16 0 -16 -17 -2 -58 10 -31 13 -32 52 -26
107 16 326 105 426 174 65 44 248 228 278 280 11 19 24 53 28 74 3 22 24 69
46 105 42 70 47 92 24 111 -19 16 -19 40 -1 65 12 17 18 18 40 7 14 -6 26 -19
26 -27 0 -9 -18 -60 -40 -114 -24 -58 -40 -114 -40 -138 0 -35 -8 -50 -63
-114 -279 -324 -525 -449 -887 -449 -108 0 -184 14 -281 51 -85 33 -256 138
-338 207 -64 55 -208 232 -217 268 -4 14 -9 22 -12 20 -3 -3 -16 10 -30 30
-110 163 -161 537 -108 790 32 150 107 304 220 448 175 224 378 359 616 410
88 19 279 20 379 1z m-764 -71 c16 -21 24 -41 20 -52 -5 -13 -10 -11 -30 13
-18 22 -24 26 -25 13 0 -9 5 -20 10 -23 13 -8 13 -45 1 -45 -6 0 -21 15 -34
33 -19 26 -23 41 -19 79 4 47 4 47 27 32 13 -9 36 -31 50 -50z m1219 25 c-27
-30 -9 -34 29 -5 19 14 37 26 40 26 4 0 7 -22 7 -48 0 -38 -5 -53 -24 -71 -36
-33 -53 -17 -21 21 37 44 30 57 -9 19 -46 -44 -66 -37 -56 19 8 42 41 91 48
70 2 -6 -4 -20 -14 -31z m123 -21 c-3 -8 -6 -5 -6 6 -1 11 2 17 5 13 3 -3 4
-12 1 -19z m-777 -32 l0 -44 -55 -7 c-60 -7 -75 -3 -75 24 0 32 57 69 108 70
20 1 22 -4 22 -43z m216 4 c14 -6 24 -18 24 -28 0 -17 -9 -19 -74 -21 -65 -2
-76 0 -85 18 -25 46 -16 54 50 47 33 -4 72 -11 85 -16z m-408 -58 c-4 -23 -29
-26 -53 -7 -20 15 -20 15 -1 30 23 18 59 3 54 -23z m-429 -37 c-13 -12 -39 20
-39 47 0 16 4 15 24 -9 16 -19 21 -31 15 -38z m1376 45 c4 -6 -1 -22 -9 -35
-14 -21 -19 -23 -36 -13 -19 12 -19 13 2 35 24 25 34 28 43 13z m-1530 -95
c33 -13 65 -45 46 -45 -7 0 -29 9 -51 20 -85 44 -231 17 -302 -55 -25 -25 -28
-35 -28 -94 0 -60 3 -70 35 -110 19 -24 35 -51 35 -61 0 -9 13 -29 30 -45 16
-15 27 -32 24 -37 -7 -12 -41 -10 -63 4 -30 18 -51 3 -51 -36 0 -44 24 -70 58
-61 22 5 24 4 18 -21 -4 -14 -10 -39 -13 -55 -6 -34 -6 -33 -42 -14 -40 20
-79 69 -91 115 -12 43 -6 63 29 94 27 25 27 50 -1 69 l-23 15 21 43 c20 41 23
109 5 109 -3 0 -17 -20 -30 -44 -20 -37 -23 -52 -18 -98 l7 -54 -35 -17 c-19
-9 -42 -28 -51 -42 -28 -43 -26 -21 6 59 97 245 187 346 335 376 46 9 106 3
150 -15z m1888 -10 c44 -21 97 -102 97 -149 0 -40 -37 -96 -74 -111 l-31 -13
29 -12 c16 -6 33 -13 38 -16 5 -3 13 8 19 26 14 38 27 29 65 -43 24 -48 26
-49 20 -17 -4 19 -20 52 -37 73 -29 36 -30 41 -21 85 l9 47 35 -75 c75 -159
122 -332 132 -494 l5 -79 -47 53 c-47 54 -125 100 -170 100 -29 0 -64 18 -57
29 2 5 20 12 38 15 37 7 107 60 107 81 0 37 24 20 51 -37 28 -60 29 -61 24
-23 -15 102 -34 142 -87 189 -63 55 -94 62 -49 11 26 -30 31 -44 31 -86 0 -28
-7 -60 -16 -74 -17 -26 -93 -61 -104 -48 -6 7 -40 100 -40 110 0 2 9 3 20 3
12 0 35 7 51 16 17 8 34 13 37 10 9 -10 -10 -24 -48 -34 -32 -9 -33 -10 -8
-11 33 -1 75 17 82 35 3 7 -6 22 -20 33 -25 20 -25 20 -44 1 -25 -25 -68 -36
-83 -21 -8 8 -6 14 6 23 16 12 16 14 -3 26 -16 10 -20 10 -20 0 0 -9 -3 -8
-10 2 -16 24 -12 29 33 41 47 14 78 35 37 26 -82 -18 -90 -18 -90 -7 0 7 16
30 35 53 20 23 41 58 47 79 6 21 14 38 17 38 3 0 21 -15 39 -32 34 -32 35 -32
28 -8 -4 14 -13 46 -19 71 -7 25 -19 54 -27 64 -45 54 -185 73 -260 35 -47
-24 -50 -24 -50 -5 0 46 201 60 283 20z m-1053 -111 c0 -17 3 -46 6 -63 5 -23
3 -31 -7 -31 -31 0 -39 15 -27 47 11 30 6 75 -16 138 -4 11 4 2 18 -20 14 -22
26 -54 26 -71z m-660 53 c0 -21 -12 -28 -27 -16 -19 16 -16 29 7 29 11 0 20
-6 20 -13z m-200 -15 c23 -18 22 -18 -38 -14 -83 6 -95 -1 -45 -26 76 -39 71
-62 -8 -38 -29 8 -55 13 -58 10 -3 -2 12 -21 32 -40 41 -41 43 -46 22 -64 -13
-11 -22 -6 -55 29 -68 71 -64 107 15 142 52 24 107 24 135 1z m1793 11 c-13
-2 -35 -2 -50 0 -16 2 -5 4 22 4 28 0 40 -2 28 -4z m155 -31 c4 -24 -7 -29
-25 -11 -14 14 -5 41 11 36 6 -2 12 -13 14 -25z m-70 -8 c26 -17 28 -34 7 -74
-13 -26 -78 -80 -96 -80 -7 0 -29 46 -29 60 0 6 6 10 13 10 6 0 26 10 42 21
l30 21 -40 -6 c-22 -3 -50 -9 -62 -12 -18 -5 -23 -2 -23 13 0 14 15 29 48 46
48 26 70 26 110 1z m-2106 4 c8 -21 -2 -38 -23 -38 -19 0 -27 29 -12 43 11 11
31 8 35 -5z m1786 -4 c12 -8 22 -26 22 -40 0 -19 -5 -24 -24 -24 -32 0 -71 47
-55 66 15 18 29 18 57 -2z m-1364 -4 l26 -9 -48 -45 c-42 -40 -49 -44 -67 -32
-30 20 -30 51 1 75 29 23 50 26 88 11z m-367 -125 c17 -33 29 -63 26 -68 -3
-4 -16 -12 -30 -18 -25 -9 -23 -29 3 -29 8 0 14 -9 14 -20 0 -11 -4 -20 -9
-20 -18 0 -61 42 -61 61 0 18 7 21 65 32 16 3 14 5 -10 12 -54 14 -115 47
-115 61 0 23 40 55 63 52 15 -2 32 -21 54 -63z m1023 10 c17 -9 30 -18 30 -20
0 -3 -30 -5 -67 -5 -65 0 -66 0 -48 20 22 24 46 25 85 5z m-775 -64 c16 -27
-38 -82 -65 -66 -16 10 -12 62 6 79 15 16 45 9 59 -13z m906 -30 c110 -42 233
-144 300 -249 70 -110 95 -300 56 -424 -26 -86 -204 -298 -249 -298 -5 0 -7
-4 -3 -10 3 -6 15 -6 29 0 26 9 36 5 36 -17 0 -17 -18 -16 -53 2 -26 13 -35
12 -105 -12 -56 -19 -99 -26 -157 -27 -73 -1 -87 2 -155 35 -87 42 -265 172
-301 221 -69 91 -80 121 -84 233 -6 163 27 264 91 275 21 4 38 19 62 55 43 64
65 80 83 59 10 -13 10 -17 -2 -25 -8 -5 -20 -7 -27 -4 -7 3 -10 0 -7 -5 4 -6
-15 -38 -41 -73 -26 -34 -60 -89 -76 -122 -25 -51 -28 -55 -23 -25 3 19 15 52
26 74 24 47 19 57 -10 20 -56 -71 -66 -238 -21 -357 37 -99 160 -210 330 -298
61 -32 71 -34 160 -33 75 0 111 5 173 26 97 32 151 76 215 173 28 40 53 71 56
68 12 -12 45 84 51 147 9 88 -16 217 -56 298 -38 78 -150 195 -225 234 -146
78 -304 77 -452 -4 -41 -22 -76 -37 -79 -34 -19 19 78 72 193 106 85 25 184
21 265 -9z m-91 -23 c0 -7 -7 -22 -16 -33 -15 -20 -15 -20 -33 4 -20 26 -51
24 -51 -4 0 -22 -18 -18 -25 6 -10 29 9 39 73 39 35 0 52 -4 52 -12z m-155
-29 c9 -39 0 -47 -25 -24 -18 16 -20 16 -26 1 -3 -9 -11 -16 -16 -16 -6 0 -17
-8 -24 -17 -10 -15 -15 -16 -26 -5 -18 18 -2 39 52 68 25 13 48 24 52 24 3 0
9 -14 13 -31z m282 0 c37 -18 41 -23 33 -40 -15 -26 -27 -24 -44 10 -18 33
-46 47 -58 29 -13 -22 -10 -25 60 -71 l67 -46 3 35 c4 38 8 40 37 18 20 -15
20 -16 -9 -39 -28 -22 -28 -23 -9 -34 16 -8 24 -6 38 9 14 16 21 17 32 8 11
-9 10 -15 -7 -33 -27 -29 -26 -32 18 -27 l37 4 -25 -23 -25 -24 -51 51 c-97
96 -199 126 -356 104 -92 -13 -142 -39 -234 -119 -27 -24 -34 -35 -25 -44 20
-20 13 -47 -13 -47 -27 0 -56 -34 -74 -89 -15 -43 -15 -189 -1 -246 l11 -44
29 14 c32 17 65 19 73 6 4 -5 -16 -17 -44 -26 -32 -11 -48 -21 -44 -28 15 -26
47 -56 55 -51 14 8 10 25 -4 22 -7 -2 -14 2 -16 7 -5 13 37 35 67 35 l23 0
-21 -31 c-29 -39 -21 -45 23 -19 l36 21 -28 42 c-63 94 -75 212 -32 310 26 59
26 58 1 109 -11 23 -18 43 -16 46 3 2 20 -8 39 -22 42 -32 42 -32 109 -1 29
14 73 28 99 31 43 6 46 8 62 55 10 27 22 49 27 49 16 0 11 -33 -10 -67 l-20
-33 24 0 c17 0 27 8 33 24 l8 24 67 -33 c56 -28 67 -31 72 -18 9 23 -13 43
-48 43 -33 0 -96 33 -96 50 0 13 41 4 105 -25 58 -26 106 -75 192 -196 91
-129 90 -125 35 -124 l-47 0 0 -70 c-1 -57 -7 -82 -31 -135 -39 -82 -74 -121
-103 -113 -13 3 -29 -1 -40 -11 -10 -9 -34 -21 -52 -27 -57 -16 -65 -24 -51
-53 11 -25 10 -26 -19 -26 l-31 0 17 26 c14 22 15 28 4 35 -23 14 -34 4 -33
-30 2 -28 -1 -31 -29 -31 -28 0 -29 1 -15 18 31 35 30 42 -1 42 -23 0 -30 -5
-33 -22 -3 -26 -63 -59 -88 -50 -30 11 -128 82 -148 106 -11 14 -22 22 -26 19
-11 -12 -64 48 -85 96 -47 110 -43 259 10 366 89 182 279 290 453 259 52 -10
55 -10 41 6 -13 15 -14 22 -3 44 13 31 31 30 105 -5z m-527 12 c0 -4 -26 -38
-59 -75 -66 -74 -120 -171 -147 -261 -10 -34 -20 -52 -22 -42 -6 29 34 148 73
212 20 33 62 86 93 118 59 60 62 62 62 48z m113 -71 c6 -23 -14 -27 -32 -7 -8
10 -7 17 1 25 14 14 24 8 31 -18z m-98 1 c3 -5 -5 -18 -18 -28 -13 -10 -38
-39 -55 -65 -18 -27 -35 -48 -38 -48 -8 0 24 56 51 88 14 16 25 37 25 46 0 17
25 22 35 7z m65 -43 c0 -13 -27 -9 -40 7 -19 23 -1 39 21 19 10 -9 19 -21 19
-26z m-785 16 c19 7 19 -8 0 -24 -18 -15 -45 2 -45 27 0 13 3 13 15 3 8 -7 22
-10 30 -6z m1021 -45 c-6 -22 -12 -34 -15 -27 -10 34 -23 38 -53 17 -16 -12
-33 -30 -37 -40 -6 -18 -9 -18 -49 8 -38 25 -41 29 -25 40 23 18 28 17 43 -12
17 -32 32 -32 24 -1 -3 14 -1 27 7 32 15 9 66 22 95 23 20 1 21 -1 10 -40z
m469 11 c0 -7 -6 -15 -12 -17 -8 -3 -13 4 -13 17 0 13 5 20 13 18 6 -3 12 -11
12 -18z m-1351 -26 c19 -18 19 -20 6 -45 -6 -10 -19 -19 -28 -19 -39 0 -57 50
-24 69 23 14 28 14 46 -5z m1867 -10 c9 -11 10 -20 3 -32 -16 -25 -32 -25 -44
-2 -22 41 12 69 41 34z m-1179 -21 c18 -16 25 -43 11 -43 -10 0 -53 42 -53 52
0 13 22 9 42 -9z m632 -41 c15 -18 15 -19 -9 -30 -14 -6 -25 -16 -25 -22 0 -6
11 -5 29 4 27 14 29 14 39 -9 41 -89 53 -254 26 -344 -21 -73 -25 -60 -7 25
15 66 11 196 -4 180 -3 -3 -33 35 -67 85 l-60 91 23 19 c29 24 34 24 55 1z
m819 -90 c31 -17 63 -47 93 -86 25 -34 61 -70 80 -82 l35 -21 -26 -17 c-14 -9
-45 -48 -70 -85 -65 -102 -144 -151 -243 -151 l-48 0 4 40 4 40 80 0 c98 0
118 10 192 95 l58 65 -89 89 c-70 70 -99 92 -134 101 -24 7 -50 14 -56 16 -7
2 -13 10 -13 19 0 22 72 10 133 -23z m-1543 -13 c0 -10 -6 -19 -12 -19 -23 0
-58 12 -58 20 0 11 43 28 58 23 6 -3 12 -14 12 -24z m-781 -5 c6 -15 10 -28 9
-29 -2 -1 -36 -12 -76 -25 -41 -13 -90 -34 -110 -48 -21 -14 -57 -39 -82 -55
-25 -17 -46 -31 -48 -32 -1 -1 35 -41 80 -88 79 -80 122 -107 176 -107 20 0
14 36 -11 67 -52 64 -52 64 -31 56 10 -4 30 -13 44 -20 14 -7 33 -13 43 -13 9
0 17 -7 17 -15 0 -8 -7 -15 -15 -15 -8 0 -15 -4 -15 -10 0 -5 9 -10 19 -10 14
0 20 -9 23 -37 3 -21 3 -40 1 -43 -2 -2 -28 -4 -59 -3 -63 2 -126 33 -169 85
-15 18 -52 59 -83 92 l-57 58 30 22 c16 11 64 53 105 93 84 80 121 103 166
103 24 0 34 -6 43 -26z m2182 -21 c2 -24 2 -25 6 -5 2 12 6 22 9 22 16 0 72
-31 87 -48 18 -20 18 -20 -22 -15 -54 7 -56 -16 -5 -46 44 -26 41 -34 -10 -20
-58 16 -62 6 -11 -30 52 -37 50 -64 -3 -34 -25 14 -34 15 -44 5 -9 -9 -7 -12
14 -12 40 0 41 -15 3 -33 -19 -9 -35 -23 -35 -32 0 -18 9 -18 85 -1 33 8 61
13 63 11 17 -17 -64 -55 -116 -55 l-40 0 2 160 c0 88 4 160 9 160 4 0 8 -12 8
-27z m-1435 -17 c10 -8 16 -17 13 -20 -11 -11 -69 6 -69 20 0 18 31 18 56 0z
m7 -77 c-6 -23 -15 -24 -53 -4 -33 17 -33 17 -24 38 5 13 10 13 43 0 30 -12
37 -19 34 -34z m-755 -49 c2 -82 -4 -92 -38 -70 -13 8 -12 10 3 10 20 0 23 16
5 24 -9 3 -8 8 5 16 17 11 24 32 10 28 -5 -1 -26 1 -47 6 l-40 8 50 29 c27 16
50 29 50 29 1 0 2 -36 2 -80z m1540 -49 c-5 -91 -33 -158 -96 -230 l-38 -44
-27 23 -26 23 26 33 25 34 29 -21 c30 -21 41 -12 14 11 -22 18 -19 33 4 20 25
-13 31 -13 31 0 0 6 -12 15 -26 20 -36 14 -24 35 19 35 20 0 37 5 37 10 0 10
-4 11 -40 14 -26 1 -28 41 -2 41 10 0 23 -5 30 -12 6 -6 14 -9 17 -6 4 3 -8
16 -24 28 -40 28 -40 44 -1 35 19 -4 30 -3 30 4 0 7 -13 14 -30 18 -16 3 -30
11 -30 19 0 11 18 17 69 23 11 1 13 -15 9 -78z m-810 52 c31 -7 28 -20 -8 -28
-36 -8 -50 0 -50 27 0 15 4 18 18 13 9 -4 27 -10 40 -12z m22 -61 c0 -13 -69
-42 -75 -33 -12 21 8 41 41 41 19 0 34 -4 34 -8z m919 -6 c15 -18 3 -46 -19
-46 -22 0 -30 19 -18 43 11 21 22 22 37 3z m-1949 -105 c0 -61 38 -214 80
-317 38 -97 155 -309 219 -401 77 -110 292 -326 385 -387 229 -152 414 -209
676 -208 235 0 399 41 584 147 174 99 382 284 464 413 88 138 167 302 167 349
0 45 -29 96 -60 101 -15 3 -17 -1 -11 -25 4 -15 9 -61 13 -100 6 -82 6 -82
-70 -86 l-46 -2 5 -36 c5 -32 3 -37 -33 -60 -78 -52 -133 -60 -200 -29 -33 14
-43 16 -43 6 0 -18 -26 -39 -42 -34 -7 3 8 23 37 51 l50 46 22 -21 c13 -12 25
-19 28 -16 3 2 -4 13 -15 23 -26 23 -26 39 -1 25 23 -12 84 -12 121 0 29 9 19
13 -28 10 -18 -1 -46 1 -63 5 -29 7 -30 8 -13 26 9 10 20 17 24 14 3 -2 20 -6
36 -9 27 -5 28 -4 10 9 -11 8 -23 15 -28 15 -4 0 -8 5 -8 11 0 13 42 9 111
-11 54 -16 99 -7 99 19 0 30 -43 84 -83 106 -48 26 -47 35 3 35 27 0 47 7 60
20 31 31 25 40 -25 33 -31 -4 -45 -2 -45 6 0 6 7 14 16 18 8 3 13 12 10 20 -3
7 0 36 6 63 11 46 14 50 47 56 20 3 52 10 71 15 51 13 50 13 50 -39 0 -27 6
-57 15 -68 22 -29 18 -41 -21 -68 -34 -23 -35 -25 -16 -35 27 -15 85 -15 76 0
-3 6 -15 9 -25 6 -28 -8 -23 2 21 40 48 41 51 69 11 103 -16 14 -31 37 -35 51
-5 23 0 30 35 53 22 15 50 44 62 64 l22 37 3 -29 c10 -87 -42 -328 -100 -461
-58 -133 -55 -122 -34 -106 42 35 124 235 145 357 12 65 51 155 51 117 0 -35
-56 -244 -85 -318 -77 -196 -202 -381 -373 -553 -273 -273 -569 -398 -972
-409 -188 -6 -281 7 -428 58 -241 85 -478 269 -671 522 -41 53 -76 97 -78 97
-10 0 54 -98 135 -210 l26 -35 -33 30 c-51 46 -105 131 -175 277 -131 272
-165 388 -190 656 l-5 53 29 -21 c26 -19 30 -28 30 -69z m1040 61 c0 -11 -67
-32 -74 -24 -11 10 -6 21 12 25 30 8 62 7 62 -1z m-385 -72 c0 -28 -4 -35 -20
-35 -12 0 -19 6 -17 14 2 8 -3 11 -13 8 -10 -4 -15 -1 -15 11 0 25 21 43 45
40 16 -2 20 -11 20 -38z m1513 28 c20 -20 14 -55 -10 -61 -24 -7 -69 11 -75
29 -10 32 59 58 85 32z m-2003 -109 c22 -10 63 -19 93 -19 28 0 52 -2 52 -4 0
-2 3 -11 6 -19 3 -10 -5 -18 -25 -25 -34 -12 -74 -89 -69 -132 3 -21 9 -26 42
-30 35 -4 37 -7 23 -19 -11 -8 -17 -28 -17 -52 0 -34 -3 -39 -23 -39 -27 0
-51 36 -45 66 1 11 -12 39 -31 63 l-34 42 26 27 c36 39 43 69 18 77 -24 7 -70
-13 -85 -37 -8 -14 -4 -37 18 -102 15 -46 38 -99 50 -119 11 -19 36 -60 55
-91 34 -57 97 -109 174 -141 48 -20 83 -19 136 6 28 12 48 16 54 10 18 -18 -2
-41 -48 -53 -25 -7 -45 -15 -45 -19 0 -13 31 -18 55 -9 14 5 25 8 25 7 0 -1
-6 -22 -14 -47 -13 -43 -11 -110 3 -110 3 0 6 26 7 58 0 52 27 132 40 119 3
-3 0 -33 -6 -67 -14 -75 1 -158 34 -197 19 -22 31 -26 66 -25 71 3 93 20 103
77 11 65 18 71 48 39 l24 -26 -30 -24 c-27 -21 -28 -24 -9 -24 11 0 29 9 39
20 27 30 48 26 42 -7 -7 -40 13 -163 35 -206 l18 -37 40 20 39 20 16 -30 c22
-43 58 -64 100 -57 28 5 37 2 46 -15 6 -11 36 -31 66 -44 31 -14 54 -27 51
-29 -9 -9 -218 25 -303 50 -112 32 -289 119 -376 185 -76 57 -206 191 -300
308 -64 80 -183 284 -231 397 -48 112 -98 288 -98 345 l0 32 53 -48 c28 -26
70 -55 92 -65z m303 -37 c3 -18 -1 -22 -22 -22 -31 0 -42 16 -25 36 17 21 43
13 47 -14z m510 -27 c26 -25 50 -45 54 -45 15 0 8 -28 -8 -34 -29 -11 -46 -7
-42 12 2 11 -10 27 -34 45 -35 27 -52 67 -28 67 6 0 32 -20 58 -45z m681 1
c11 -13 4 -19 -47 -45 -105 -53 -239 -78 -322 -60 -85 18 -38 31 90 25 67 -3
110 -1 110 5 0 5 10 14 23 19 21 9 21 9 -4 9 -15 1 -29 8 -32 16 -10 25 12 27
45 4 l31 -23 -5 22 c-3 11 -1 28 6 37 10 14 12 14 13 -5 2 -26 22 -52 34 -44
5 3 3 13 -3 24 -9 14 -9 22 1 34 14 17 37 10 60 -18z m-1329 -46 c0 -5 -7 -10
-15 -10 -22 0 -18 -13 11 -41 23 -22 24 -24 8 -36 -21 -15 -72 -17 -94 -3 -12
8 -11 15 8 54 19 40 26 46 52 46 16 0 30 -4 30 -10z m1473 -2 c7 -21 -4 -38
-23 -38 -19 0 -34 25 -24 41 8 13 42 11 47 -3z m-53 -55 c0 -15 -2 -15 -24 -7
-16 6 -22 35 -9 48 9 8 33 -22 33 -41z m-680 -19 c-11 -29 4 -32 32 -7 14 13
21 14 30 5 30 -30 -53 -60 -87 -32 -18 15 -20 51 -3 68 19 19 39 -4 28 -34z
m-700 -36 c0 -7 -12 -25 -27 -40 -28 -30 -20 -38 13 -13 25 19 31 19 38 -2 9
-22 -10 -33 -60 -33 -58 0 -65 23 -18 66 37 35 54 42 54 22z m1234 6 c20 -8
21 -44 1 -44 -9 0 -18 7 -21 15 -9 24 -24 17 -24 -10 0 -30 -11 -32 -35 -5
-17 19 -17 20 1 26 11 3 28 9 39 14 11 5 21 9 22 9 1 1 8 -2 17 -5z m-394 -14
c13 -9 12 -12 -5 -26 -12 -9 -19 -24 -17 -37 2 -20 1 -20 -8 -4 -6 9 -18 17
-25 17 -19 0 -19 10 1 38 17 24 31 27 54 12z m83 -32 c13 -19 0 -71 -16 -65
-16 5 -31 51 -24 72 8 19 26 16 40 -7z m209 -2 c11 -25 6 -56 -10 -56 -5 0 -6
14 -4 31 3 20 0 34 -9 40 -10 6 -11 9 -1 9 7 0 17 -11 24 -24z m-146 -52 c-10
-14 -26 -24 -39 -23 -12 0 -16 3 -9 6 7 3 22 24 34 46 20 37 23 39 26 19 2
-13 -4 -34 -12 -48z m90 55 c3 -6 1 -16 -5 -22 -17 -17 -13 -27 12 -37 21 -8
21 -9 -5 -9 -34 -1 -62 34 -47 61 11 20 34 24 45 7z m-206 -38 c14 -27 13 -31
-9 -31 -23 0 -35 15 -27 35 8 21 23 19 36 -4z m-854 -61 c-39 -43 -43 -55 -24
-66 7 -5 26 9 48 35 31 36 38 40 44 25 5 -12 -3 -28 -26 -52 l-33 -34 44 22
c29 15 47 18 54 11 14 -14 2 -40 -25 -51 -18 -8 -13 -9 24 -6 54 6 68 -6 43
-34 -50 -55 -149 -43 -170 20 -11 31 -15 35 -44 32 -28 -3 -31 -1 -31 25 0 15
3 45 6 65 6 35 9 37 48 41 22 2 49 4 60 5 14 2 11 -6 -18 -38z m1984 -4 c16
-20 7 -20 -31 -1 -16 9 -27 20 -24 25 7 12 35 -1 55 -24z m99 -153 c-86 -154
-110 -192 -149 -233 -33 -37 -40 -40 -33 -20 17 55 -9 150 -42 150 -8 0 -27
11 -42 25 l-28 25 30 -11 c17 -6 47 -8 68 -5 54 9 158 60 192 96 16 16 30 30
33 30 2 0 -11 -26 -29 -57z m-1104 -88 c4 -29 3 -63 -1 -76 -7 -21 -9 -18 -15
21 -4 25 -7 72 -7 105 0 49 1 55 8 31 5 -15 12 -52 15 -81z m712 -21 c-2 -2
-12 -2 -21 2 -13 5 -14 9 -5 21 11 12 14 12 22 -2 5 -9 7 -19 4 -21z m134 0
c20 -10 38 -32 51 -60 l20 -46 -27 -53 c-19 -40 -46 -71 -103 -117 -227 -187
-406 -270 -632 -293 l-65 -7 46 30 c58 37 79 67 79 110 0 30 2 32 21 22 11 -7
28 -9 37 -5 13 5 11 11 -16 31 -36 28 -62 72 -62 103 0 39 18 30 61 -29 24
-33 46 -60 50 -60 3 0 11 11 17 25 6 14 8 25 3 25 -9 0 -25 80 -17 88 3 2 10
-7 17 -21 6 -14 22 -28 35 -31 31 -8 30 -29 -1 -82 -26 -44 -107 -114 -131
-114 -18 0 -18 -16 0 -23 32 -13 133 60 163 117 l15 28 25 -23 25 -24 29 33
c16 18 29 39 29 47 0 23 -6 18 -29 -21 -28 -47 -35 -39 -15 17 8 24 19 82 22
128 8 97 21 111 51 53 21 -41 48 -69 57 -59 4 3 -5 20 -19 37 -31 36 -42 69
-29 82 6 6 12 -3 16 -26 10 -51 26 -45 26 9 0 25 2 45 4 45 3 0 18 -12 33 -27
16 -16 45 -40 64 -56 l34 -27 -55 2 c-55 2 -55 2 -58 -29 -4 -37 15 -46 86
-45 91 2 102 18 102 144 0 80 0 81 20 63 10 -9 23 -36 29 -59 l9 -41 1 36 c1
26 -7 47 -29 74 -41 52 -40 56 11 29z m-150 -30 c32 -16 59 -66 59 -106 l0
-23 -20 25 c-29 36 -81 120 -74 120 3 0 19 -7 35 -16z m-1341 -11 c0 -12 -45
-73 -57 -78 -23 -8 -14 32 13 59 26 25 44 33 44 19z m1312 -33 l22 -35 -32 29
c-32 29 -42 51 -21 44 5 -2 20 -19 31 -38z m-1291 -23 c-13 -12 -20 -15 -16
-7 14 26 28 41 33 35 3 -3 -5 -16 -17 -28z m56 1 c6 -8 7 -25 2 -44 -9 -33
-35 -44 -103 -44 l-31 0 40 33 c22 17 47 40 55 49 19 20 25 21 37 6z m361 -25
c47 -6 45 -14 -6 -31 -41 -14 -72 -1 -72 29 0 16 4 19 17 15 9 -4 37 -10 61
-13z m672 -39 c0 -8 -5 -12 -10 -9 -6 4 -8 11 -5 16 9 14 15 11 15 -7z m-10
-20 c11 -12 11 -30 2 -90 -7 -42 -16 -83 -21 -91 -7 -14 -10 -14 -19 4 -8 14
-8 39 -2 77 5 31 7 63 3 71 -6 18 3 45 15 45 5 0 15 -7 22 -16z m-50 -26 c0
-13 -5 -30 -10 -38 -7 -11 -10 -5 -10 23 0 20 5 37 10 37 6 0 10 -10 10 -22z
m-804 4 c6 -4 15 -27 18 -52 9 -56 25 -100 38 -100 18 0 58 50 64 79 6 27 8
29 35 19 17 -6 29 -17 29 -27 0 -22 -52 -71 -113 -106 l-47 -27 -15 36 c-12
28 -34 141 -35 179 0 9 12 9 26 -1z m763 -29 c0 -25 -1 -25 -8 -8 -5 11 -7 23
-4 28 8 14 13 7 12 -20z m-669 -22 c0 -4 -5 -23 -12 -41 -10 -30 -12 -32 -19
-14 -4 10 -8 34 -8 52 -1 30 1 32 19 22 11 -6 20 -14 20 -19z m586 -3 c-3 -13
-6 -30 -6 -38 0 -11 -6 -9 -21 7 -26 25 -19 53 12 53 17 0 20 -4 15 -22z
m-436 -67 c0 -44 6 -66 23 -91 20 -31 123 -119 139 -120 15 0 117 70 136 94
10 14 25 46 32 71 16 58 35 45 26 -17 -8 -55 -48 -105 -126 -158 l-57 -39 -69
50 c-105 75 -144 138 -144 232 0 30 4 37 20 37 18 0 20 -7 20 -59z m97 39 c14
0 14 -3 -2 -20 -20 -22 -30 -20 -38 11 -4 15 -2 19 10 15 8 -3 22 -6 30 -6z
m40 -34 c-8 -34 -7 -48 4 -63 13 -19 14 -15 16 35 4 87 23 90 23 4 0 -40 4
-72 9 -72 11 0 21 50 21 101 0 49 16 51 24 4 4 -21 13 -35 21 -35 11 0 12 6 5
26 -6 14 -10 30 -10 35 0 15 46 10 60 -6 10 -12 8 -21 -11 -49 -44 -62 -122
-156 -129 -156 -12 0 -79 86 -90 115 -9 24 -6 31 27 66 21 22 39 39 39 39 1 0
-3 -20 -9 -44z m-167 -128 c0 -17 -9 -22 -27 -15 -5 1 -8 9 -8 17 0 8 -9 15
-20 15 -28 0 -30 30 -3 49 22 15 23 15 40 -16 9 -18 17 -41 18 -50z"/>
<path d="M2881 3738 c0 -7 4 -22 9 -33 8 -18 9 -17 9 7 1 15 -3 30 -9 33 -5 3
-10 0 -9 -7z"/>
<path d="M2810 3326 c-50 -13 -120 -52 -120 -67 0 -13 6 -12 50 11 55 28 70
26 70 -9 0 -29 22 -61 41 -61 16 0 48 38 55 65 8 34 -10 75 -33 74 -10 0 -38
-6 -63 -13z"/>
<path d="M2143 3223 l3 -61 -44 39 c-51 45 -95 51 -133 20 -34 -27 -19 -38 84
-59 48 -11 96 -27 107 -37 30 -27 34 -13 14 52 -31 108 -34 112 -31 46z"/>
<path d="M3005 3221 c-16 -10 -39 -28 -49 -40 -11 -12 -37 -24 -58 -27 -65
-11 -52 -22 20 -17 37 3 90 14 117 24 28 11 61 19 74 19 20 0 21 -2 11 -15 -7
-8 -18 -15 -25 -15 -23 0 -64 -40 -75 -76 -17 -51 -3 -61 51 -36 52 23 76 48
89 90 10 36 -12 72 -60 97 -38 20 -59 19 -95 -4z m75 -140 c0 -12 -31 -43 -37
-37 -6 6 20 46 29 46 5 0 8 -4 8 -9z"/>
<path d="M1899 3154 c-11 -14 -10 -18 6 -30 10 -8 24 -14 30 -14 6 0 30 -18
54 -40 23 -22 47 -40 52 -40 16 0 9 20 -16 45 -22 23 -23 25 -5 25 31 0 24 28
-12 50 -40 24 -91 26 -109 4z"/>
<path d="M3192 3128 c-5 -7 -17 -28 -27 -47 -9 -19 -37 -55 -61 -81 l-43 -46
34 -37 c58 -64 133 -47 165 37 13 34 7 54 -31 115 -16 25 -27 51 -25 58 7 16
1 17 -12 1z m4 -140 c-15 -31 -60 -68 -84 -68 -5 0 -12 6 -15 14 -5 13 101
101 111 92 2 -3 -3 -20 -12 -38z"/>
<path d="M1859 3108 c-3 -27 4 -44 32 -83 30 -42 89 -85 89 -65 0 16 -57 126
-75 144 -19 19 -45 21 -46 4z"/>
<path d="M1817 3050 c-9 -14 -17 -33 -17 -43 0 -24 43 -108 67 -129 18 -17 21
-16 57 21 l37 38 -29 12 c-27 12 -83 77 -94 110 -3 11 -9 9 -21 -9z"/>
<path d="M1770 2862 c-45 -22 -64 -72 -48 -129 6 -21 13 -32 15 -26 3 9 17 11
43 7 34 -6 43 -3 70 24 35 35 40 79 13 110 -26 30 -54 34 -93 14z m78 -50 c5
-30 -25 -82 -47 -82 -33 0 -44 25 -27 59 27 51 68 64 74 23z"/>
<path d="M1792 2771 c2 -7 7 -12 11 -12 12 1 9 15 -3 20 -7 2 -11 -2 -8 -8z"/>
<path d="M3279 2858 c-33 -11 -53 -52 -39 -79 6 -10 28 -30 49 -43 21 -13 53
-47 71 -75 43 -68 51 -57 12 18 -30 58 -31 59 -11 77 54 48 -9 126 -82 102z
m61 -33 c10 -12 10 -21 1 -41 -9 -21 -17 -25 -44 -22 -25 2 -33 8 -35 26 -2
13 -1 30 2 38 7 19 60 18 76 -1z"/>
<path d="M3185 2640 c-6 -10 23 -25 105 -56 35 -12 34 -13 -35 -14 -58 -1 -65
-3 -40 -11 16 -5 55 -6 85 -3 74 7 47 -10 -52 -34 -41 -9 -76 -21 -79 -27 -7
-17 89 -17 139 -1 26 9 60 27 77 40 26 21 28 26 15 41 -30 36 -114 75 -162 75
-26 0 -50 -5 -53 -10z"/>
<path d="M1753 2625 c-43 -18 -68 -57 -54 -83 24 -45 205 -95 225 -63 5 7 -3
11 -21 11 -15 0 -50 14 -78 30 l-50 30 53 0 c33 0 51 4 47 10 -3 6 -23 10 -43
10 l-37 1 58 30 c31 16 57 31 57 34 0 11 -127 3 -157 -10z"/>
<path d="M3108 2229 c-20 -11 -24 -44 -7 -55 6 -4 30 -46 52 -93 23 -50 42
-80 45 -71 2 8 11 23 20 33 10 12 11 17 3 17 -7 0 -10 4 -7 9 17 27 -38 104
-89 127 l-30 13 36 1 c48 0 83 -29 105 -85 18 -49 34 -59 34 -22 0 29 -52 112
-79 126 -25 14 -61 14 -83 0z"/>
<path d="M3024 2129 c-4 -7 0 -16 9 -21 52 -28 77 -61 77 -97 0 -72 -55 -90
-138 -46 -42 22 -48 23 -69 10 -12 -8 -31 -15 -41 -15 -35 0 -46 -25 -33 -75
17 -66 2 -89 -50 -82 -33 4 -39 2 -39 -13 0 -24 48 -62 74 -58 31 4 47 60 40
139 -7 83 5 95 50 46 20 -22 45 -38 68 -42 51 -10 136 17 182 58 l39 33 -17
32 c-38 74 -135 157 -152 131z"/>
<path d="M2907 2042 c-34 -35 -34 -44 -2 -36 17 4 42 -2 79 -21 69 -35 91 -31
91 15 0 31 -3 35 -28 38 -16 2 -39 -4 -53 -13 -31 -20 -65 -6 -57 25 7 27 2
25 -30 -8z"/>
<path d="M2084 1991 c-54 -9 -92 -35 -100 -67 -14 -57 50 -69 125 -23 28 17
32 24 28 48 -3 15 -1 33 6 40 12 12 8 13 -59 2z"/>
<path d="M2211 1915 c-25 -29 -31 -45 -31 -81 0 -54 25 -102 57 -110 56 -14
193 96 193 153 l-1 28 -20 -27 c-12 -16 -46 -37 -89 -53 -72 -28 -85 -37 -92
-70 -3 -12 -9 0 -16 33 -13 56 -5 86 34 140 26 35 -1 25 -35 -13z"/>
<path d="M3640 3075 c-7 -8 -8 -15 -2 -15 5 0 15 7 22 15 7 8 8 15 2 15 -5 0
-15 -7 -22 -15z"/>
<path d="M2459 2835 c-165 -60 -245 -238 -173 -383 32 -65 101 -126 166 -148
70 -23 163 -15 220 19 40 23 118 97 118 111 0 17 -30 2 -61 -30 -99 -103 -272
-111 -364 -17 -41 42 -75 127 -75 186 0 46 27 114 66 164 60 78 195 110 279
66 41 -21 113 -92 134 -130 24 -46 31 -110 16 -147 -16 -39 -20 -76 -7 -76 4
0 16 23 26 51 35 96 3 190 -96 286 -60 58 -167 79 -249 48z"/>
<path d="M2774 2843 c-17 -6 21 -104 48 -125 21 -16 24 -16 41 0 18 16 18 17
0 30 -10 7 -26 11 -36 8 -14 -3 -17 2 -15 30 2 35 -18 65 -38 57z"/>
<path d="M2506 2764 c-3 -8 -6 -27 -6 -41 0 -14 -11 -38 -25 -55 -36 -42 -35
-110 1 -143 56 -52 153 -15 154 58 0 58 -40 105 -94 109 -23 2 -24 4 -12 33
15 36 38 39 46 7 7 -31 24 -33 28 -3 5 29 -4 37 -49 45 -29 5 -38 3 -43 -10z
m44 -149 c15 -18 6 -45 -14 -45 -17 0 -48 39 -40 52 8 13 41 9 54 -7z"/>
<path d="M2442 2748 c-21 -21 -11 -78 14 -78 9 0 15 12 16 30 0 17 1 35 2 42
1 16 -18 20 -32 6z"/>
<path d="M2620 2725 c-15 -18 -6 -45 14 -45 17 0 25 18 18 43 -5 21 -16 22
-32 2z"/>
<path d="M2380 2679 c0 -6 9 -23 21 -37 l21 -27 -37 -3 c-44 -4 -42 -26 3 -30
18 -2 32 -7 32 -11 0 -12 -35 -41 -48 -41 -7 0 -12 -7 -12 -15 0 -11 11 -15
41 -15 l41 0 -16 -25 c-9 -13 -16 -33 -16 -44 0 -35 19 -33 37 3 16 35 36 46
48 26 3 -5 -1 -23 -11 -39 -12 -20 -14 -33 -7 -45 9 -17 11 -17 26 -1 10 9 17
28 17 41 0 15 4 23 10 19 6 -3 22 3 37 15 l27 21 11 -32 c12 -33 35 -52 35
-27 0 7 -4 28 -9 45 l-10 33 29 -15 c16 -8 32 -24 35 -35 4 -12 12 -19 18 -17
15 5 16 63 1 60 -6 -1 -22 9 -34 22 l-23 24 -44 -26 c-56 -33 -106 -27 -145
17 -24 26 -27 36 -22 72 7 55 -9 98 -36 98 -11 0 -20 -5 -20 -11z"/>
<path d="M2656 2661 c-10 -11 -16 -28 -13 -38 4 -16 5 -16 6 0 1 10 9 17 20
17 30 0 51 11 51 26 0 21 -44 17 -64 -5z"/>
<path d="M2835 2573 c0 -131 -14 -180 -56 -195 -30 -10 -38 -38 -19 -68 7 -11
10 -7 10 17 0 25 3 30 18 26 15 -3 25 9 47 59 24 53 29 77 29 150 1 76 3 88
18 88 9 0 19 4 22 9 7 11 -17 21 -47 21 -21 0 -22 -4 -22 -107z"/>
<path d="M2667 2603 c-11 -3 -16 -10 -13 -20 3 -8 6 -20 6 -27 0 -7 11 -18 25
-24 38 -18 41 -15 15 13 l-24 25 25 -2 c18 -2 25 2 27 20 3 23 -14 27 -61 15z"/>
<path d="M2565 2400 c-8 -27 10 -49 26 -33 13 13 8 45 -8 50 -6 2 -14 -6 -18
-17z"/>
<path d="M2344 2307 c7 -31 1 -33 -43 -11 -18 9 -35 14 -38 11 -8 -9 7 -27 23
-27 8 0 14 -5 14 -11 0 -7 12 -10 30 -7 30 4 43 -13 20 -27 -5 -3 -10 -14 -10
-23 0 -12 9 -7 30 18 l29 35 1 -37 c0 -21 4 -38 9 -38 9 0 41 44 41 57 0 4
-26 26 -57 47 -56 39 -56 39 -49 13z"/>
<path d="M2974 2739 c-3 -6 -1 -16 5 -22 8 -8 11 -5 11 11 0 24 -5 28 -16 11z"/>
<path d="M2848 2298 c12 -12 25 -18 29 -14 4 4 -1 14 -11 22 -31 22 -43 17
-18 -8z"/>
<path d="M3613 2221 c-29 -24 -29 -35 -2 -28 16 4 28 -1 41 -19 20 -25 52 -32
63 -14 3 6 -1 10 -9 10 -9 0 -16 5 -16 10 0 6 5 10 10 10 6 0 10 7 10 17 0 15
-2 14 -20 -2 -19 -17 -20 -17 -31 9 -14 31 -17 31 -46 7z"/>
<path d="M1550 1645 c0 -6 67 -40 98 -49 16 -6 22 -3 22 8 0 9 -8 16 -19 16
-10 0 -35 7 -54 15 -39 16 -47 18 -47 10z"/>
<path d="M1697 1506 c-10 -26 7 -50 74 -106 61 -51 97 -73 146 -90 24 -8 25
-8 9 3 -172 111 -202 136 -215 183 -6 23 -8 25 -14 10z"/>
<path d="M1995 1425 c-22 -8 -52 -16 -67 -19 -43 -10 -33 -26 16 -26 25 0 48
-5 51 -10 7 -11 85 -53 90 -48 6 7 -15 48 -25 48 -7 0 -9 13 -4 35 7 39 4 40
-61 20z"/>
<path d="M3060 1434 l0 -61 37 -6 c54 -9 163 19 163 42 0 4 -19 8 -42 8 -54 1
-124 29 -143 56 -14 20 -15 17 -15 -39z"/>
<path d="M1385 3474 c-41 -44 -148 -240 -193 -351 -57 -143 -94 -329 -91 -463
1 -48 3 -45 10 30 26 257 111 495 261 727 60 92 60 93 52 93 -3 0 -21 -16 -39
-36z"/>
<path d="M3596 3868 c10 -36 24 -48 55 -48 15 0 31 -4 34 -10 3 -5 11 -10 18
-10 16 0 -85 89 -101 90 -9 0 -11 -7 -6 -22z"/>
<path d="M1180 4312 c0 -21 20 -82 26 -82 3 0 18 10 34 22 40 29 46 18 15 -27
-26 -39 -33 -75 -15 -75 6 0 1 -13 -11 -29 -32 -44 -19 -67 49 -86 96 -28 115
-29 142 -6 21 18 23 22 10 31 -25 17 -83 30 -133 30 -44 0 -48 2 -45 21 6 42
32 46 93 15 64 -32 96 -30 121 9 29 45 -4 135 -49 135 -29 0 -89 -55 -85 -78
5 -25 44 -26 76 -2 l27 22 3 -25 c4 -32 -14 -67 -34 -67 -8 0 -32 11 -54 25
-22 14 -49 25 -60 25 -42 0 -23 33 54 97 23 19 25 26 16 43 -11 21 -35 27 -45
11 -4 -8 -92 -61 -100 -61 -2 0 -6 13 -10 30 -8 35 -25 50 -25 22z"/>
<path d="M3790 4298 l-23 -31 27 -20 c15 -10 42 -44 61 -73 19 -30 38 -54 43
-54 10 0 42 54 42 72 0 21 -30 45 -65 54 -16 4 -39 13 -50 20 -18 13 -16 14
20 14 l40 0 -30 25 c-16 13 -33 24 -36 25 -3 0 -16 -14 -29 -32z m110 -108 c0
-11 -4 -20 -9 -20 -14 0 -23 18 -16 30 10 17 25 11 25 -10z"/>
<path d="M3994 4216 c15 -24 15 -25 -19 -46 -43 -27 -44 -42 -5 -70 31 -22 80
-24 124 -5 16 7 18 5 12 -11 -20 -49 -23 -73 -12 -91 29 -50 92 -141 117 -170
15 -17 30 -44 33 -60 4 -15 16 -39 27 -53 l21 -25 -6 31 c-8 50 5 48 29 -4 27
-58 46 -74 82 -70 24 3 28 8 31 36 5 47 -22 75 -64 68 -23 -5 -35 -1 -49 14
-16 18 -17 23 -5 48 8 15 15 29 16 32 2 3 -1 12 -6 19 -6 11 -13 9 -31 -8
l-24 -22 -27 32 c-30 36 -35 58 -16 77 9 9 17 7 35 -10 13 -12 23 -17 23 -11
0 5 -11 20 -25 33 l-25 24 -29 -28 -28 -27 -32 39 c-36 46 -40 66 -11 57 23
-7 60 2 60 16 0 5 -16 9 -36 9 -33 0 -36 2 -29 23 19 62 19 71 -1 63 -63 -24
-100 -29 -128 -15 -39 19 -38 31 7 52 43 22 47 38 12 61 -34 22 -40 20 -21 -8z
m404 -518 c-3 -7 -13 -13 -23 -13 -10 0 -20 6 -22 13 -3 7 5 12 22 12 17 0 25
-5 23 -12z"/>
<path d="M1071 4175 c-53 -54 -51 -86 5 -112 l35 -17 45 46 c42 42 45 47 34
69 -14 27 -49 59 -65 58 -5 0 -30 -20 -54 -44z m99 -16 c18 -32 12 -42 -15
-25 -13 9 -36 16 -50 16 -27 0 -34 14 -10 24 8 3 15 12 15 21 0 14 3 14 25 -1
14 -9 30 -25 35 -35z m-70 -49 c0 -21 -15 -27 -25 -10 -7 12 2 30 16 30 5 0 9
-9 9 -20z"/>
<path d="M3725 4191 c-38 -17 -76 -67 -82 -109 -4 -33 -2 -42 18 -56 14 -9 43
-16 73 -16 45 0 52 4 86 40 30 33 39 38 44 25 8 -22 -1 -57 -35 -132 -16 -35
-26 -63 -23 -63 15 0 57 37 70 61 53 103 -59 289 -151 250z m44 -111 c51 -26
52 -40 3 -40 -67 0 -99 44 -76 105 6 14 9 11 20 -13 8 -19 28 -39 53 -52z"/>
<path d="M947 4103 c-11 -11 -8 -24 6 -22 26 3 37 -2 48 -22 15 -29 -2 -39
-63 -39 -27 0 -48 -4 -48 -9 0 -10 35 -21 68 -21 26 0 92 28 92 39 -1 3 -13
20 -28 37 -28 32 -63 50 -75 37z"/>
<path d="M3916 4071 c-4 -5 -1 -33 5 -61 l11 -52 28 33 c24 29 30 32 44 20 9
-7 16 -17 16 -22 0 -4 -27 -26 -59 -48 -63 -43 -92 -93 -73 -127 7 -13 10 -8
15 24 10 60 29 70 75 38 41 -28 80 -34 100 -14 23 23 12 64 -33 126 -52 72
-112 110 -129 83z"/>
<path d="M1075 4002 c-84 -64 -82 -108 5 -152 42 -21 117 -34 124 -21 3 5 -16
11 -42 15 -26 3 -58 13 -71 22 -20 15 -23 23 -19 65 3 27 11 55 17 63 11 14
15 14 36 0 22 -14 26 -14 54 7 32 23 50 18 71 -21 7 -14 1 -15 -53 -12 -73 4
-110 -14 -91 -44 38 -63 128 -76 197 -28 62 44 56 62 -32 107 -97 49 -131 49
-196 -1z m125 -79 c0 -18 -28 -29 -42 -15 -7 7 -6 17 2 32 9 17 14 19 26 9 8
-6 14 -18 14 -26z"/>
<path d="M1505 3988 c-41 -30 -118 -99 -128 -115 -15 -24 2 -13 56 35 29 26
68 59 87 74 41 32 28 37 -15 6z"/>
<path d="M912 3950 c10 -16 9 -23 -12 -45 -30 -32 -36 -31 -54 3 -11 20 -15
22 -16 9 0 -10 14 -36 31 -57 35 -43 33 -65 -4 -79 -27 -11 -39 -33 -30 -57 5
-13 10 -11 29 13 20 23 114 197 114 209 0 2 -9 4 -19 4 -11 0 -23 5 -26 10 -3
6 -10 10 -16 10 -5 0 -4 -9 3 -20z"/>
<path d="M4312 3893 c25 -53 43 -83 50 -83 13 0 9 12 -18 52 -24 34 -42 51
-32 31z"/>
<path d="M755 3809 c-20 -39 -33 -75 -29 -79 5 -5 23 -10 41 -12 l32 -3 -37
-58 c-35 -57 -36 -57 -48 -35 -7 12 -10 26 -8 30 3 4 -1 5 -9 3 -13 -5 -37
-59 -37 -83 0 -17 39 -25 57 -11 26 22 93 127 93 147 0 10 -7 40 -16 66 -13
38 -14 53 -5 73 7 14 10 27 8 30 -2 2 -21 -28 -42 -68z"/>
<path d="M821 3856 c-20 -24 -9 -51 22 -54 27 -3 37 11 16 23 -6 4 -14 16 -18
27 -6 18 -9 18 -20 4z"/>
<path d="M960 3815 c-25 -13 -38 -24 -29 -25 17 0 34 -28 24 -39 -3 -3 -15 0
-25 7 -16 9 -21 9 -28 -5 -15 -26 -2 -51 29 -58 28 -6 205 12 222 22 5 3 -2
12 -15 21 -13 9 -46 35 -74 59 -28 24 -53 43 -55 43 -2 -1 -24 -12 -49 -25z"/>
<path d="M4075 3814 c-11 -9 -46 -29 -77 -45 -32 -16 -58 -33 -58 -38 0 -16
59 -30 151 -37 78 -6 92 -5 109 11 26 23 25 65 -1 99 -16 21 -29 26 -62 26
-23 0 -51 -8 -62 -16z"/>
<path d="M1251 3708 c-12 -22 -18 -37 -12 -34 12 8 44 66 39 71 -2 2 -14 -15
-27 -37z"/>
<path d="M4174 3661 c-23 -10 -45 -24 -48 -30 -9 -14 -5 -14 37 4 91 38 150 6
204 -112 18 -39 33 -74 33 -76 0 -3 -17 1 -37 9 -52 18 -73 17 -110 -6 -52
-31 -59 -55 -33 -111 21 -44 24 -47 44 -35 33 21 74 28 96 16 25 -14 25 -35 0
-60 -20 -20 -20 -20 -52 0 -46 28 -71 27 -63 -2 11 -37 40 -73 64 -76 11 -2
21 1 21 6 0 6 16 20 35 32 42 26 65 66 65 114 0 31 -4 36 -36 46 -34 12 -81
10 -146 -6 -20 -5 -28 -3 -28 8 0 27 31 57 66 64 40 7 119 -18 133 -43 12 -22
24 1 13 24 -5 10 -30 61 -56 113 -26 52 -53 103 -60 112 -21 28 -93 32 -142 9z"/>
<path d="M830 3656 c-50 -28 -146 -189 -137 -233 2 -13 0 -26 -4 -29 -5 -3 -9
-13 -9 -21 0 -13 6 -11 28 9 15 14 47 38 70 53 24 14 41 29 38 32 -3 3 -29 -8
-57 -25 -27 -18 -52 -32 -55 -32 -12 0 30 62 58 85 28 23 30 26 11 22 -30 -7
-29 0 6 55 50 78 99 96 178 63 43 -18 43 -18 43 -1 0 15 -70 36 -117 36 -15
-1 -39 -7 -53 -14z"/>
<path d="M863 3625 c-39 -17 -58 -48 -43 -74 15 -28 95 -57 127 -45 53 19 53
58 1 114 -22 23 -41 25 -85 5z m73 -30 c18 -27 12 -45 -16 -45 -21 0 -33 25
-25 51 8 26 21 24 41 -6z"/>
<path d="M4159 3601 c-30 -31 -40 -83 -17 -97 6 -4 32 -7 56 -7 38 0 50 5 74
31 35 40 35 55 2 81 -38 30 -80 27 -115 -8z m79 -25 c4 -20 -16 -48 -29 -40
-11 6 -12 48 -2 58 11 10 28 1 31 -18z"/>
<path d="M4455 3571 l-18 -43 -18 23 c-24 31 -24 28 9 -66 37 -104 95 -216
100 -192 2 9 -10 41 -27 70 l-31 54 40 32 c22 18 40 37 40 44 0 7 -11 26 -24
42 l-25 30 -15 -37 c-9 -21 -16 -42 -16 -47 0 -19 -18 -20 -23 -2 -3 11 6 35
20 56 20 29 23 42 15 59 -9 19 -11 18 -27 -23z"/>
<path d="M611 3513 c-15 -53 -13 -113 4 -143 13 -23 14 -20 10 40 -5 64 -5 65
10 33 16 -36 32 -42 42 -17 5 15 -33 110 -48 120 -5 2 -13 -12 -18 -33z"/>
<path d="M4548 3374 c-3 -26 2 -44 20 -67 20 -27 23 -39 18 -79 -6 -42 -4 -48
21 -68 22 -17 24 -23 13 -30 -18 -11 -16 -88 2 -106 10 -11 18 -11 38 -1 33
16 39 70 12 106 -10 14 -26 49 -35 76 -10 28 -29 68 -43 89 -22 32 -25 43 -15
57 19 32 8 59 -24 59 -1 0 -5 -16 -7 -36z m112 -298 c0 -16 -18 -31 -27 -22
-8 8 5 36 17 36 5 0 10 -6 10 -14z"/>
<path d="M850 3376 c38 -14 46 -13 35 3 -3 6 -21 11 -38 10 l-32 -1 35 -12z"/>
<path d="M703 3354 c-26 -13 -33 -23 -33 -47 0 -44 59 -97 108 -97 35 0 102
31 102 47 0 5 -17 31 -38 58 -31 41 -44 50 -72 53 -19 1 -50 -5 -67 -14z m133
-55 c4 -8 -3 -9 -26 -4 -29 6 -31 5 -25 -14 7 -24 -9 -51 -31 -51 -19 0 -18
40 3 62 18 20 68 24 79 7z"/>
<path d="M545 3320 c-7 -11 34 -23 66 -18 12 2 24 9 27 16 5 15 -84 17 -93 2z"/>
<path d="M606 3268 c-8 -13 -18 -35 -21 -50 -6 -23 -3 -29 20 -40 24 -11 29
-10 41 7 25 34 13 105 -18 105 -4 0 -14 -10 -22 -22z"/>
<path d="M4464 3256 c-3 -8 -4 -25 -2 -38 3 -20 9 -23 51 -26 40 -3 47 0 47
15 0 33 -29 63 -61 63 -16 0 -32 -6 -35 -14z"/>
<path d="M510 3178 c0 -13 -5 -29 -12 -36 -9 -9 -8 -12 5 -12 23 0 31 -23 17
-49 -16 -31 -48 -27 -52 7 -4 25 -5 24 -12 -11 -10 -43 4 -67 39 -67 16 0 26
8 33 28 9 23 11 24 11 6 1 -12 10 -33 21 -47 11 -14 20 -27 20 -30 0 -3 -15
-28 -34 -56 -33 -49 -40 -76 -49 -191 -3 -36 -23 -55 -42 -40 -24 20 -19 -36
5 -60 25 -25 41 -25 70 -2 23 19 23 19 5 65 -21 56 -17 134 10 191 25 51 136
142 194 159 36 10 50 20 65 49 19 34 19 37 3 62 -24 35 -38 33 -24 -4 16 -41
4 -57 -72 -96 -34 -17 -70 -39 -80 -48 -27 -24 -39 -20 -61 25 -17 32 -20 55
-18 107 3 63 2 67 -19 70 -18 3 -23 -1 -23 -20z"/>
<path d="M607 3130 c-21 -17 -27 -30 -27 -59 0 -21 3 -40 6 -44 3 -3 29 8 56
25 42 26 54 29 69 20 11 -7 19 -8 19 -3 0 6 -4 13 -10 16 -5 3 -10 13 -10 22
0 11 6 14 26 9 21 -6 25 -4 22 11 -5 29 -115 31 -151 3z"/>
<path d="M4300 3118 c-22 -36 -26 -73 -10 -83 5 -3 34 -8 63 -9 59 -4 82 -13
111 -45 19 -21 19 -21 -20 -37 -47 -20 -94 -52 -94 -65 0 -12 72 -12 104 1 38
14 34 -16 -6 -52 l-33 -28 30 11 c16 5 35 15 43 21 21 18 40 -7 24 -32 -10
-16 -8 -22 10 -35 13 -8 28 -15 36 -15 7 0 24 -11 37 -25 19 -18 25 -35 25
-68 0 -23 5 -48 12 -55 18 -18 73 -14 91 6 37 41 4 98 -53 90 -16 -3 -30 -1
-30 3 0 21 -54 69 -78 69 -26 1 -26 1 8 20 37 20 29 27 -14 10 -23 -8 -26 -7
-26 11 0 11 -6 30 -14 42 -25 40 -28 100 -6 142 24 47 25 86 5 125 -15 29 -19
30 -79 30 l-64 0 -12 -35 c-10 -31 -14 -34 -32 -24 -20 11 -20 11 3 35 19 20
20 24 6 24 -10 0 -26 -15 -37 -32z m118 -22 c-25 -19 -22 -27 6 -20 26 6 56
-25 56 -59 0 -19 -1 -19 -27 -1 -16 10 -40 24 -55 32 -15 7 -30 17 -33 22 -8
13 24 40 48 40 20 -1 21 -2 5 -14z m280 -457 c-2 -6 -8 -10 -13 -10 -5 0 -11
4 -13 10 -2 6 4 11 13 11 9 0 15 -5 13 -11z"/>
<path d="M475 2974 c-11 -11 -14 -25 -11 -40 4 -15 0 -34 -10 -50 -12 -18 -14
-28 -6 -36 7 -7 19 2 41 32 17 24 31 47 31 52 0 12 -14 10 -28 -4 -9 -9 -12
-8 -12 6 0 9 5 26 10 37 13 23 7 24 -15 3z"/>
<path d="M654 2972 c-12 -7 -44 -65 -44 -79 0 -4 5 -2 12 5 18 18 42 15 85
-10 l38 -22 -23 26 c-24 26 -24 26 -3 33 29 9 26 33 -5 45 -30 12 -45 12 -60
2z"/>
<path d="M593 2835 c-42 -18 -53 -53 -23 -77 32 -26 53 -23 100 17 l41 35 -33
20 c-39 23 -43 24 -85 5z"/>
<path d="M428 2796 c-9 -13 -20 -35 -24 -50 -6 -25 -4 -26 35 -26 40 0 41 1
41 33 -1 27 -19 68 -31 67 -2 0 -12 -11 -21 -24z"/>
<path d="M4295 2693 c14 -155 0 -362 -30 -435 -4 -10 -3 -18 2 -18 10 0 28 65
39 137 6 38 12 46 58 74 51 31 126 97 126 110 0 4 -16 17 -36 28 -20 12 -63
45 -95 73 -55 48 -59 53 -53 85 4 23 2 33 -6 33 -9 0 -11 -21 -5 -87z m51 -79
c-9 -24 -26 -6 -26 29 l0 31 16 -22 c9 -13 13 -30 10 -38z m41 -10 c3 -8 17
-20 31 -25 14 -5 22 -12 19 -16 -10 -10 -77 27 -77 42 0 20 19 19 27 -1z m-42
-39 c0 -10 -6 -20 -12 -22 -8 -3 -13 5 -13 22 0 17 5 25 13 23 6 -3 12 -13 12
-23z m49 -26 c-7 -11 -34 -12 -34 -1 0 14 11 21 26 15 8 -3 11 -9 8 -14z m-50
-18 c3 -5 -1 -14 -9 -21 -13 -10 -15 -9 -15 9 0 21 14 28 24 12z m54 -5 c-10
-7 -18 -18 -18 -25 0 -6 -7 -11 -15 -11 -22 0 -18 15 8 33 27 19 49 22 25 3z
m-58 -45 c0 -6 -4 -13 -10 -16 -5 -3 -10 1 -10 9 0 9 5 16 10 16 6 0 10 -4 10
-9z"/>
<path d="M4320 2726 c0 -3 105 -81 168 -125 26 -18 31 -26 21 -37 -9 -11 -8
-14 5 -14 9 0 16 5 16 10 0 6 14 10 31 10 37 0 35 -21 -3 -31 -15 -4 -55 -30
-90 -58 -34 -28 -82 -59 -105 -68 -24 -10 -43 -21 -43 -24 0 -11 42 -19 96
-19 69 0 118 36 163 119 l33 62 -32 49 c-56 87 -76 98 -227 124 -18 3 -33 4
-33 2z"/>
<path d="M623 2635 c-29 -29 -34 -41 -30 -64 5 -22 0 -34 -24 -57 -34 -33 -35
-38 -9 -71 38 -48 119 -101 167 -108 68 -10 75 7 17 47 -26 18 -68 51 -91 72
-39 35 -46 38 -68 28 -34 -16 -31 -7 13 43 62 72 112 133 112 139 0 3 -12 6
-26 6 -16 0 -39 -13 -61 -35z"/>
<path d="M4604 2480 c28 -43 12 -138 -26 -153 -8 -3 -6 -6 5 -6 57 -3 79 104
31 156 -22 25 -24 25 -10 3z"/>
<path d="M4520 2336 c0 -4 9 -19 20 -33 19 -25 19 -27 4 -45 -23 -25 -13 -31
30 -20 29 8 36 8 36 -4 0 -9 -11 -14 -35 -14 -19 0 -35 -4 -35 -10 0 -5 13
-10 29 -10 79 0 35 -129 -53 -157 -16 -5 -36 -20 -45 -33 l-16 -23 53 7 52 7
0 -48 c0 -41 2 -45 14 -33 12 12 12 25 3 67 -10 49 -9 54 11 76 28 29 44 83
37 119 -4 14 -1 29 4 33 6 3 11 22 11 41 0 32 -2 34 -32 34 -21 0 -41 9 -60
27 -15 15 -28 23 -28 19z"/>
<path d="M570 2294 c-21 -25 -1 -67 37 -77 26 -8 38 -5 67 13 l36 22 -36 29
c-40 32 -84 38 -104 13z"/>
<path d="M4676 2268 c-20 -28 -21 -68 -2 -68 22 0 30 19 15 36 -9 11 -8 18 6
34 10 11 13 20 7 20 -6 0 -18 -10 -26 -22z"/>
<path d="M4437 2233 c-17 -17 -4 -25 31 -18 54 10 64 25 16 25 -23 0 -44 -3
-47 -7z"/>
<path d="M4430 2178 c-49 -34 -59 -54 -35 -72 13 -10 26 -11 43 -5 30 12 52
11 52 0 0 -6 -15 -12 -32 -14 l-33 -4 37 -1 c82 -4 111 32 66 82 -34 36 -59
40 -98 14z"/>
<path d="M586 2144 c-21 -21 -21 -21 17 -44 35 -22 87 -26 118 -10 28 16 24
27 -21 50 -47 24 -93 26 -114 4z"/>
<path d="M860 2136 c0 -28 19 -86 29 -86 35 0 41 72 9 94 -30 22 -38 20 -38
-8z"/>
<path d="M785 1995 c-16 -28 -37 -70 -45 -95 -18 -51 -45 -64 -59 -28 -11 29
5 51 32 44 19 -5 19 -4 4 11 -15 15 -18 15 -37 -2 -27 -24 -25 -51 5 -80 31
-32 43 -31 56 1 9 25 11 26 22 10 9 -12 23 -17 42 -14 24 2 31 8 33 29 3 22
-2 29 -27 37 l-30 11 20 46 c31 69 20 90 -16 30z"/>
<path d="M4380 2035 c0 -2 13 -11 30 -20 27 -14 30 -14 40 5 10 18 8 20 -30
20 -22 0 -40 -2 -40 -5z"/>
<path d="M682 2000 c-24 -38 39 -42 83 -5 l30 25 -51 -2 c-37 -1 -54 -6 -62
-18z m45 -6 c-3 -3 -12 -4 -19 -1 -8 3 -5 6 6 6 11 1 17 -2 13 -5z"/>
<path d="M4260 2012 c0 -5 14 -30 31 -56 16 -27 29 -49 27 -50 -63 -28 -81
-53 -58 -81 16 -19 100 -20 125 -2 25 19 14 58 -25 80 -37 22 -38 33 -2 41 43
10 82 28 82 36 0 5 -24 6 -54 3 -44 -5 -62 -2 -90 15 -20 12 -36 18 -36 14z"/>
<path d="M4450 1956 c0 -6 7 -22 16 -34 25 -35 -5 -61 -31 -26 -10 14 -13 8
-18 -37 -4 -30 -4 -64 -1 -75 5 -18 0 -22 -28 -28 -40 -7 -91 1 -130 20 -52
27 -52 11 2 -44 l39 -41 -34 -7 c-46 -8 -61 -27 -47 -59 15 -33 56 -42 97 -22
58 28 56 53 -11 114 -42 38 -50 49 -29 38 35 -17 127 -20 156 -5 22 12 26 59
7 78 -9 9 -9 15 0 24 7 7 12 8 12 3 0 -4 9 0 20 10 11 10 20 24 20 31 0 7 8
10 20 7 11 -3 20 -7 20 -10 0 -2 -27 -57 -60 -121 -68 -135 -109 -189 -158
-209 -33 -14 -36 -13 -92 21 -68 42 -110 60 -110 46 0 -5 32 -26 70 -45 39
-19 70 -37 70 -38 0 -2 -16 -1 -35 1 -21 3 -35 0 -35 -7 0 -6 7 -11 15 -11 22
0 19 -47 -4 -60 -29 -15 -31 -14 -31 33 -1 38 -5 45 -46 76 -43 31 -46 32 -38
10 4 -13 11 -39 15 -58 10 -46 75 -111 110 -111 29 0 84 54 75 74 -18 45 -18
46 -3 40 28 -10 88 28 127 80 52 71 139 244 143 284 2 31 -1 35 -45 52 -33 12
-48 14 -48 6z"/>
<path d="M4582 1908 c-5 -7 -13 -24 -17 -38 l-7 -25 17 23 c11 14 27 22 47 22
26 0 29 2 18 15 -15 18 -44 19 -58 3z"/>
<path d="M540 1902 c0 -5 9 -17 20 -27 20 -18 21 -18 38 -1 16 17 16 18 -4 12
-15 -4 -24 -2 -28 9 -6 16 -26 21 -26 7z"/>
<path d="M4552 1815 c-10 -22 -9 -25 14 -31 33 -8 35 -4 14 29 l-17 27 -11
-25z"/>
<path d="M4490 1713 c-11 -31 -18 -63 -15 -71 3 -8 -2 -26 -11 -39 -11 -17
-13 -28 -6 -35 16 -16 32 0 32 31 0 15 9 36 20 46 11 10 20 31 20 46 0 24 6
30 33 37 l32 9 -32 16 c-18 9 -36 17 -42 17 -5 0 -19 -25 -31 -57z"/>
<path d="M667 1742 c-37 -40 -43 -106 -12 -132 9 -7 19 -5 36 10 l24 19 -22 1
c-21 0 -22 3 -17 48 3 26 7 53 10 60 5 17 0 15 -19 -6z"/>
<path d="M4056 1658 c-31 -47 -37 -61 -17 -38 29 34 76 110 68 110 -2 0 -25
-33 -51 -72z"/>
<path d="M710 1591 c-11 -34 -10 -45 5 -85 27 -72 75 -72 89 -1 6 28 3 31 -35
47 -32 14 -40 22 -36 37 10 39 -10 41 -23 2z m54 -86 c-4 -8 -12 -15 -20 -15
-17 0 -18 17 -1 23 22 9 27 7 21 -8z"/>
<path d="M922 1596 c-35 -19 -69 -40 -77 -46 -25 -21 -17 -60 19 -96 29 -29
41 -34 79 -34 25 0 53 3 62 6 20 8 45 55 61 119 l13 50 -24 -29 c-13 -16 -26
-45 -30 -63 -7 -38 -23 -48 -60 -39 -35 9 -90 60 -83 77 3 8 33 28 66 44 58
29 77 45 50 45 -7 0 -41 -16 -76 -34z"/>
<path d="M4385 1550 c-3 -10 -20 -31 -36 -44 -36 -31 -32 -58 10 -76 24 -10
33 -9 55 5 46 31 44 93 -4 123 -16 10 -20 8 -25 -8z m17 -22 c-7 -7 -12 -8
-12 -2 0 14 12 26 19 19 2 -3 -1 -11 -7 -17z m-2 -53 c0 -8 -6 -15 -14 -15
-17 0 -28 14 -19 24 12 12 33 6 33 -9z"/>
<path d="M935 1540 c-9 -15 46 -56 59 -43 17 17 4 41 -24 45 -17 3 -33 2 -35
-2z"/>
<path d="M3990 1493 c0 -36 140 -107 164 -83 8 8 -40 36 -156 88 -5 2 -8 0 -8
-5z"/>
<path d="M1084 1461 c-108 -80 -132 -121 -99 -168 18 -26 77 -47 105 -38 58
18 64 111 10 144 l-30 18 29 21 30 22 10 -33 c5 -17 15 -59 20 -91 6 -33 14
-62 17 -65 7 -7 74 67 74 81 0 16 -19 8 -38 -17 -23 -29 -32 -31 -32 -7 0 25
-42 162 -49 162 -4 0 -25 -13 -47 -29z m-16 -73 c14 -14 16 -48 3 -48 -22 0
-41 13 -41 29 0 31 18 39 38 19z"/>
<path d="M783 1434 c-13 -6 -8 -26 15 -62 14 -21 16 -22 38 -7 24 15 24 15 24
-24 0 -49 35 -78 78 -63 l27 9 -27 13 c-15 7 -46 42 -69 77 -39 59 -54 69 -86
57z"/>
<path d="M3994 1413 c9 -18 16 -47 16 -66 0 -43 15 -57 65 -57 48 0 128 35
123 52 -6 20 -75 50 -127 56 -27 3 -56 13 -70 26 l-24 21 17 -32z m106 -33 c0
-14 -46 -60 -60 -60 -17 0 -11 29 10 50 21 21 50 27 50 10z"/>
<path d="M4245 1358 c-69 -82 -109 -102 -193 -95 -74 5 -108 32 -105 83 2 34
1 36 -9 19 -6 -11 -16 -23 -21 -26 -5 -4 -5 -14 1 -25 15 -29 29 -143 24 -196
-5 -55 3 -59 48 -22 l31 27 -31 26 c-26 21 -33 36 -38 76 l-5 49 31 -26 c63
-52 126 -48 195 13 25 21 48 39 51 39 3 0 13 -14 22 -31 12 -24 18 -29 25 -18
5 8 2 20 -7 31 -14 15 -14 16 3 12 20 -5 95 37 76 43 -7 2 -21 0 -32 -6 -36
-20 -42 -12 -21 30 38 73 17 72 -45 -3z"/>
<path d="M930 1242 c0 -14 24 -32 50 -37 13 -2 24 -6 25 -7 37 -56 44 -76 30
-88 -24 -20 -18 -34 25 -60 22 -14 40 -33 40 -42 0 -25 14 -29 38 -12 41 29
19 92 -41 118 -18 8 -26 15 -18 15 10 1 6 11 -13 30 -22 23 -27 36 -22 55 6
23 4 26 -23 26 -15 0 -43 3 -60 6 -18 4 -31 2 -31 -4z m198 -164 c18 -15 15
-28 -9 -28 -27 0 -55 16 -63 36 -5 13 -1 14 27 9 17 -4 38 -12 45 -17z"/>
<path d="M1195 1230 c-11 -4 -29 -23 -39 -42 -18 -33 -18 -35 2 -75 21 -41 70
-73 110 -73 18 0 21 6 19 40 -2 47 14 54 28 11 l11 -31 17 29 c31 52 16 91
-25 69 -14 -7 -18 -4 -18 12 0 26 -43 70 -67 69 -10 0 -27 -4 -38 -9z m33 -62
c20 -20 14 -28 -23 -28 -38 0 -38 0 -29 24 7 19 35 21 52 4z"/>
<path d="M3787 1191 c-18 -43 -23 -49 -39 -40 -11 6 -27 9 -36 7 -13 -2 -8
-12 22 -46 l38 -42 -30 0 c-17 0 -44 8 -61 18 -33 18 -54 12 -75 -21 -13 -21
12 -70 65 -128 35 -38 42 -41 75 -36 40 7 87 45 110 89 l14 27 -49 -6 c-60 -7
-101 2 -101 22 0 12 17 15 84 15 76 0 86 2 100 22 29 41 18 87 -32 141 -39 41
-60 35 -85 -22z m103 -32 c0 -9 -93 -89 -98 -84 -5 4 25 62 51 99 19 27 21 28
34 10 7 -10 13 -21 13 -25z m-202 -101 c18 -18 14 -38 -7 -38 -23 0 -35 15
-27 35 7 18 18 19 34 3z"/>
<path d="M4190 1216 c0 -8 -14 -26 -31 -41 -30 -24 -32 -25 -50 -9 -26 24 -32
13 -19 -35 11 -40 10 -43 -24 -83 -20 -23 -34 -44 -31 -46 9 -9 53 39 102 111
26 39 51 75 54 80 4 5 12 6 19 2 10 -6 9 -10 -4 -17 -24 -14 -20 -30 7 -23 38
12 42 23 17 50 -26 28 -40 32 -40 11z"/>
<path d="M930 1175 c21 -22 36 -31 39 -24 4 14 -43 59 -62 59 -6 0 5 -16 23
-35z"/>
<path d="M1395 1183 c-3 -15 -12 -54 -20 -85 -17 -64 -19 -108 -7 -108 5 0 21
13 36 29 33 34 44 93 26 145 -15 47 -28 54 -35 19z"/>
<path d="M4170 1120 c-9 -6 -10 -10 -3 -10 6 0 15 5 18 10 8 12 4 12 -15 0z"/>
<path d="M4014 1077 c-35 -32 -37 -37 -26 -61 14 -30 6 -32 -45 -11 -41 17
-43 18 -43 7 0 -12 90 -53 101 -47 5 4 9 19 9 36 0 16 4 29 8 29 12 0 48 68
40 75 -4 4 -23 -9 -44 -28z"/>
<path d="M1470 1019 c-19 -12 -45 -30 -58 -40 l-23 -17 37 -36 c43 -42 128
-67 166 -48 21 10 20 11 -16 11 -42 1 -117 20 -115 30 2 13 75 69 94 73 17 3
20 -2 18 -34 -3 -40 3 -47 21 -24 6 8 21 17 34 21 26 8 30 -10 7 -35 -14 -16
-14 -23 8 -71 29 -64 53 -97 63 -87 4 4 9 29 12 56 4 49 -18 112 -56 155 -14
16 -17 16 -39 2 -20 -14 -23 -14 -23 0 0 13 -69 65 -87 65 -5 0 -24 -10 -43
-21z"/>
<path d="M1178 988 c-5 -45 12 -78 40 -78 8 0 23 -11 34 -25 22 -28 63 -33 72
-9 6 15 8 15 26 -1 47 -42 69 27 25 78 -21 23 -32 27 -79 27 -44 0 -60 5 -84
25 l-30 25 -4 -42z m45 -22 c21 -16 22 -32 1 -40 -22 -9 -34 1 -34 30 0 27 7
29 33 10z m95 -50 c6 -30 -15 -42 -38 -21 -29 26 -26 47 7 43 18 -2 29 -10 31
-22z"/>
<path d="M1850 995 c0 -7 81 -47 86 -43 2 3 -17 14 -41 26 -25 12 -45 20 -45
17z"/>
<path d="M3495 988 c-30 -16 -45 -39 -45 -70 l0 -28 -44 22 c-28 13 -51 18
-62 13 -18 -7 -18 -7 2 -15 24 -10 72 -64 85 -97 6 -16 4 -36 -7 -64 -15 -36
-18 -39 -33 -25 -23 21 -92 45 -175 61 l-68 13 43 -44 c49 -50 129 -94 170
-94 33 0 75 59 98 138 l16 54 31 -76 c35 -84 37 -79 -43 -91 -56 -9 -72 -28
-41 -49 28 -18 99 -34 83 -19 -5 5 -30 16 -55 23 l-45 14 62 7 c107 13 108 14
56 118 -25 49 -47 108 -50 130 -5 39 -4 41 20 41 33 0 50 -30 42 -73 -9 -48
24 -81 74 -72 38 7 101 41 101 54 0 14 -118 121 -145 131 -33 12 -45 12 -70
-2z m123 -68 c23 -17 42 -35 42 -40 0 -14 -44 -30 -82 -30 -29 0 -30 2 -24 31
3 17 1 39 -4 50 -17 30 20 24 68 -11z"/>
<path d="M3870 964 c0 -11 7 -28 16 -39 12 -16 18 -18 34 -7 26 16 25 4 -2
-25 -18 -19 -19 -23 -5 -23 13 0 67 67 67 84 0 2 -15 6 -32 9 -18 3 -43 8 -55
12 -18 6 -23 4 -23 -11z m45 -14 c-3 -5 -13 -10 -21 -10 -8 0 -14 5 -14 10 0
6 9 10 21 10 11 0 17 -4 14 -10z"/>
<path d="M3826 873 c8 -59 12 -63 30 -39 26 36 12 86 -24 86 -10 0 -12 -11 -6
-47z"/>
<path d="M1800 854 c22 -20 40 -43 40 -51 0 -8 -15 -20 -32 -28 -18 -8 -58
-35 -88 -60 -52 -43 -58 -46 -99 -41 -50 7 -50 3 1 -18 l35 -15 63 50 62 51
55 -14 c63 -15 69 -30 17 -41 -44 -9 -56 -1 -30 19 11 8 15 14 9 14 -13 0 -43
-33 -43 -47 0 -40 70 -38 119 2 30 26 151 75 184 75 32 0 10 -14 -71 -45 -40
-16 -75 -32 -78 -36 -7 -13 23 -66 41 -73 9 -3 24 -6 34 -6 22 0 96 73 111
111 13 30 30 39 30 15 0 -33 -24 -74 -72 -123 -29 -29 -49 -56 -45 -59 9 -9
51 29 87 78 15 21 30 35 32 32 3 -2 8 17 11 43 5 40 3 51 -15 66 -27 23 -75
22 -138 -3 -28 -11 -74 -20 -102 -20 -47 0 -50 1 -33 14 19 14 18 16 -18 69
-32 47 -73 77 -104 77 -1 0 15 -16 37 -36z"/>
<path d="M1412 847 c-18 -18 -32 -36 -32 -39 0 -3 19 -18 41 -34 34 -23 52
-28 105 -29 39 -1 64 3 64 9 0 6 10 -1 21 -16 23 -31 59 -37 79 -13 15 18 16
17 -37 44 -27 14 -43 28 -43 40 0 14 -6 17 -24 14 -13 -3 -27 0 -30 6 -10 16
-42 13 -60 -5 -9 -8 -16 -29 -16 -45 l0 -30 -35 27 c-41 31 -42 36 -14 75 27
38 20 37 -19 -4z m153 -67 c0 -8 -8 -16 -17 -18 -13 -2 -18 3 -18 18 0 15 5
20 18 18 9 -2 17 -10 17 -18z"/>
<path d="M3241 854 c-18 -23 -26 -26 -73 -22 l-53 3 -1 -40 c-1 -22 -16 -71
-33 -108 -36 -78 -33 -92 25 -103 50 -9 82 2 100 38 19 36 14 52 -41 124 -28
36 -33 49 -23 55 23 15 78 9 155 -16 42 -14 77 -24 78 -23 10 10 14 76 5 88
-9 13 -12 12 -26 -5 -8 -11 -19 -26 -23 -34 -7 -11 -15 -11 -45 -1 -34 11 -35
13 -21 33 30 43 9 53 -24 11z m-53 -196 c3 -15 -4 -18 -42 -18 -49 0 -66 13
-39 29 27 16 77 9 81 -11z"/>
<path d="M1903 843 c8 -10 19 -34 24 -53 7 -27 15 -36 35 -38 18 -2 30 3 37
16 12 22 2 33 -60 70 -44 27 -58 28 -36 5z"/>
<path d="M3775 839 c-5 -16 -12 -19 -32 -14 -28 7 -49 -5 -106 -59 -33 -30
-36 -37 -21 -43 10 -4 21 0 28 9 8 10 22 14 44 10 41 -6 92 15 92 38 0 10 10
24 22 32 14 9 19 20 15 31 -9 24 -34 21 -42 -4z m-45 -64 c-13 -16 -50 -21
-50 -7 0 15 13 22 38 22 21 0 22 -2 12 -15z"/>
<path d="M2532 744 c-21 -23 -21 -27 -7 -54 22 -42 30 -43 50 -5 16 28 17 38
7 59 -14 31 -20 31 -50 0z m38 -28 c0 -27 -15 -42 -25 -26 -8 13 3 50 16 50 5
0 9 -11 9 -24z"/>
<path d="M2976 739 c-14 -11 -26 -27 -26 -35 0 -28 44 -107 80 -145 33 -35 42
-39 86 -39 l49 0 -41 -21 c-47 -22 -86 -59 -64 -59 7 0 21 6 29 13 36 31 90
57 96 48 3 -6 -19 -24 -50 -42 -50 -28 -76 -49 -60 -49 3 0 30 14 60 31 30 17
59 28 65 24 29 -18 2 56 -33 89 -18 17 -20 18 -29 3 -12 -22 -60 -22 -86 1
-11 9 -36 42 -56 74 l-35 56 20 26 c30 38 39 32 39 -24 0 -27 5 -50 10 -50 6
0 10 27 10 60 0 52 -3 60 -19 60 -10 0 -30 -9 -45 -21z"/>
<path d="M2852 723 c-7 -3 -22 -24 -33 -46 -12 -23 -29 -51 -39 -62 -19 -20
-18 -20 60 -23 75 -2 80 -1 95 22 19 28 14 52 -16 90 -20 25 -39 30 -67 19z
m57 -39 c20 -25 28 -54 16 -54 -13 0 -85 41 -85 48 0 12 23 32 36 32 7 0 22
-12 33 -26z"/>
<path d="M2250 713 c-34 -6 -47 -19 -55 -51 -4 -15 -11 -29 -16 -33 -6 -3 5
-39 26 -84 40 -88 42 -101 18 -127 -9 -10 -11 -18 -6 -18 6 0 13 7 17 15 8 23
25 18 32 -10 5 -19 13 -25 35 -25 40 0 37 21 -10 73 -55 60 -94 141 -86 178 8
33 30 59 51 59 18 0 18 -37 -1 -74 -19 -35 -14 -54 23 -89 l28 -27 29 30 c34
36 28 56 -23 80 -30 14 -31 17 -26 63 4 26 3 46 -2 46 -5 -1 -20 -4 -34 -6z"/>
<path d="M2435 704 c-14 -15 -14 -18 -1 -38 9 -11 37 -52 62 -90 l46 -69 26
34 c15 19 49 58 76 86 41 44 47 55 36 68 -23 28 -55 18 -92 -30 l-35 -45 -42
50 c-46 55 -52 57 -76 34z m175 -88 c-35 -36 -67 -63 -71 -60 -16 10 -100 126
-95 131 12 12 37 -9 68 -56 35 -54 48 -62 48 -32 0 27 89 106 103 92 8 -8 -7
-28 -53 -75z"/>
<path d="M3597 683 c-15 -14 -6 -25 15 -20 12 4 29 1 37 -6 12 -10 14 -9 8 6
-4 10 -7 21 -7 23 0 7 -46 5 -53 -3z"/>
<path d="M1727 666 c-4 -10 -2 -27 4 -39 9 -18 9 -20 -2 -9 -15 13 -39 16 -39
4 0 -10 76 -47 115 -56 20 -4 45 -1 68 9 42 17 51 6 12 -15 l-25 -13 22 -24
c12 -12 20 -24 17 -26 -2 -2 -15 -8 -29 -14 -21 -10 -22 -12 -5 -12 11 0 40 4
64 8 31 6 50 5 70 -5 14 -8 35 -14 46 -14 16 1 14 4 -10 18 l-30 17 40 3 c23
2 54 14 72 28 l31 24 11 -30 c5 -17 13 -30 17 -30 6 0 -4 89 -12 102 -3 4 -23
-11 -45 -33 -29 -29 -47 -39 -67 -37 -15 1 -37 -4 -49 -10 -29 -16 -30 -16
-37 16 -3 15 -17 40 -30 56 -24 29 -24 29 -59 13 -37 -18 -74 -22 -94 -9 -7 4
-20 27 -31 52 -14 34 -20 40 -25 26z m179 -143 c-11 -11 -19 6 -11 24 8 17 8
17 12 0 3 -10 2 -21 -1 -24z"/>
<path d="M3280 639 l25 -10 -31 -14 c-51 -21 -59 -71 -18 -104 44 -35 60 -26
25 14 -17 20 -31 39 -31 44 0 14 23 29 49 33 14 1 26 8 28 14 4 11 -39 34 -60
33 -7 0 -1 -5 13 -10z"/>
<path d="M2400 598 c-30 -46 -33 -51 -22 -44 6 4 12 -5 14 -21 2 -22 9 -29 31
-31 32 -4 31 -5 11 43 -8 21 -13 46 -11 57 7 25 -5 23 -23 -4z"/>
<path d="M3330 584 c-14 -7 -29 -15 -34 -17 -5 -2 -6 -8 -2 -15 5 -8 16 -7 41
5 36 17 64 9 32 -8 -20 -12 -14 -31 8 -23 20 8 26 33 15 55 -12 22 -25 23 -60
3z"/>
<path d="M2351 514 c-6 -15 -9 -29 -7 -32 3 -2 10 8 16 23 14 36 7 43 -9 9z"/>
<path d="M2105 467 c-4 -12 -1 -36 5 -51 l11 -29 22 22 c13 11 35 21 48 21 46
0 40 13 -19 37 -31 12 -58 23 -59 23 -2 0 -5 -10 -8 -23z"/>
<path d="M2415 463 c-49 -12 -58 -44 -24 -87 37 -47 78 -26 47 24 -10 15 -9
22 5 38 28 31 21 37 -28 25z"/>
<path d="M2592 448 c-7 -7 -12 -21 -12 -33 0 -69 88 -90 141 -34 32 34 35 49
17 67 -16 16 -130 16 -146 0z m78 -31 c0 -18 -21 -37 -41 -37 -22 0 -33 16
-25 35 7 19 66 20 66 2z"/>
<path d="M2490 427 c0 -32 9 -57 21 -57 15 0 10 57 -6 70 -13 11 -15 8 -15
-13z"/>
<path d="M2761 391 c-23 -32 -26 -41 -11 -41 5 0 17 15 26 33 l17 32 14 -33
c13 -33 38 -37 26 -4 -18 50 -43 54 -72 13z"/>
</g>
</svg>