<svg xmlns="http://www.w3.org/2000/svg" viewBox="0 0 512 512" id="shree">
  <path fill="#f66" d="M356.05 459.55q-12.975-17.94-25.96-35.88c.03.88.32 19.21-14.39 28.32-.09.05-.18.11-.27.16a13.753 13.753 0 0 1-20.78-11.85c.3-96.7.6-125.15.89-221.85q-23.025-27.345-46.06-54.69v165.69a152.427 152.427 0 0 1-77.94-55.12 193.845 193.845 0 0 0 18.8-32.22c7.12-15.44 14.04-32.58 15.61-53.31 2.49-32.95-13.12-69.72-44.58-82.9a62.593 62.593 0 0 0-27.71-4.57c-44.73 2.57-71.15 47.76-65.07 90.14 3.19 22.24 12.67 42.35 20.99 56.72a182.827 182.827 0 0 0 19.7 27.67 555.924 555.924 0 0 1-33.78 31.45 554.804 554.804 0 0 1-62.09 46.04q12.48 21.975 24.95 43.95c12.18-8.3 24.7-17.39 37.43-27.35a714.05 714.05 0 0 0 67.99-60.55 266.85 266.85 0 0 0 22.71 22 264.156 264.156 0 0 0 25.52 19.41L79.63 449.06q14.865 23.43 29.75 46.88a838.506 838.506 0 0 1 141.06-128.92c.03 27.19.94 50.01 1.92 67.4 1.5 26.44 11.21 55.8 37.42 66.4a50.343 50.343 0 0 0 30.87 1.79c22.46-6.14 32.8-26.83 36.31-35.8a7.635 7.635 0 0 0-.91-7.26ZM162.53 184.74c-1.96 15.89-10.35 32.57-20.03 45.03-.66.86-2.83 3.59-8.97 10.08l-.87.93a115.142 115.142 0 0 1-12.7-20.67c-9.38-19.18-19.6-51.8 2.99-66.1 9.6-6.07 24.28-3.45 32.12 4.46 6.59 6.65 8.61 16.9 7.46 26.27Z"></path>
  <path fill="#ff4e4e" d="M146.37 105.9c31.46 13.18 47.07 49.95 44.58 82.9-1.57 20.73-8.49 37.87-15.61 53.31a193.202 193.202 0 0 1-12.589 23.061 15.625 15.625 0 0 0 1.43 18.673 152.404 152.404 0 0 0 65.032 43.884 3.97 3.97 0 0 0 5.267-3.757 152.234 152.234 0 0 1-62.94-49.64 193.845 193.845 0 0 0 18.8-32.221c7.12-15.44 14.04-32.58 15.61-53.31 2.49-32.95-13.12-69.72-44.58-82.9a62.593 62.593 0 0 0-27.71-4.57 68.073 68.073 0 0 0-3.772.326 60.647 60.647 0 0 1 16.482 4.244zm-20.245 125.567.04-.047c-2.258-3.664-4.316-7.458-6.205-11.31-9.38-19.18-19.6-51.8 2.99-66.1a20.699 20.699 0 0 1 5.097-2.28c-6.82-1.852-14.362-1.346-20.097 2.28-22.59 14.3-12.37 46.92-2.99 66.1a86.52 86.52 0 0 0 6.806 10.776 9.098 9.098 0 0 0 14.359.58zM280.54 218.45c-.29 96.7-.59 125.15-.89 221.85a13.753 13.753 0 0 0 20.78 11.85c.09-.05.18-.11.27-.16.07-.044.136-.092.206-.136a13.637 13.637 0 0 1-6.256-11.554c.3-96.7.6-125.15.89-221.85q-23.025-27.345-46.06-54.69v17.81l31.06 36.88zm-144.448 98.61-.077-.078a10.406 10.406 0 0 0-14.684-.155A713.667 713.667 0 0 1 60.79 369.95q-13.521 10.579-26.677 19.87l4.247 7.48c12.18-8.3 24.7-17.39 37.43-27.35a713.672 713.672 0 0 0 60.302-52.89zM356.05 459.55q-12.975-17.94-25.96-35.88a38.447 38.447 0 0 1-3.507 15.885q7.235 9.997 14.467 19.995a7.635 7.635 0 0 1 .91 7.26c-3.51 8.97-13.85 29.66-36.31 35.8a45.28 45.28 0 0 1-5.278 1.07 51.343 51.343 0 0 0 20.278-1.07c22.46-6.14 32.8-26.83 36.31-35.8a7.635 7.635 0 0 0-.91-7.26zm-120.548-81.576a5.597 5.597 0 0 0-8.935-4.446 837.517 837.517 0 0 0-70.777 58.932 838.64 838.64 0 0 0-52.676 53.607l6.266 9.873a838.327 838.327 0 0 1 126.123-117.858z"></path>
  <path fill="#f66" d="M490.254 478.069c-19.965 37.179-68.186 31.674-86.54-4.64-7.836-15.479-9.012-34.12-8.932-51.236l1.085-179.557-.183-83.648c-.045-26.932 2.22-54.426-12.133-78.628-9.784-16.497-33.202-37.743-54.183-31.416-28.314 8.544-30.554 56.621-29.887 79.974.54 18.882 5.722 38.52 5.722 38.52a184.32 184.32 0 0 0 3.826 12.567l-53.093-59.596c-1.392-5.442-10.43-43.417 14.055-76.993 4.71-6.46 23.49-30.229 56.65-35.086 33.773-4.948 58.912 13.613 66.508 19.22 44.247 32.652 45.149 90.302 45.149 97.751.525 128.84 1.05 189.45 1.575 318.292a9.076 9.076 0 0 0 15.51 6.346l.161-.166c14.608-15.115 14.86-34.995 14.78-40.113q13.534 20.898 27.091 41.785c4.226 6.516-4.1 20.915-7.16 26.624Z"></path>
  <path fill="#ff4e4e" d="M378.149 27.55c44.247 32.652 45.149 90.302 45.149 97.751.525 128.84 1.05 189.451 1.575 318.292a9.076 9.076 0 0 0 15.51 6.346l.161-.166c.326-.338.637-.68.95-1.023a8.904 8.904 0 0 1-1.62-5.158c-.526-128.84-1.051-189.452-1.576-318.291 0-7.45-.902-65.1-45.15-97.751-7.302-5.39-30.828-22.745-62.647-19.678 24.12 2.323 41.547 15.174 47.648 19.678zm-63.782 21.394c-28.313 8.544-30.553 56.621-29.886 79.974a176.582 176.582 0 0 0 3.216 27.143l21.332 23.944a184.32 184.32 0 0 1-3.826-12.567s-5.183-19.638-5.722-38.52c-.667-23.353 1.573-71.43 29.886-79.974.201-.06.404-.101.605-.157a29.225 29.225 0 0 0-15.605.157zm183.048 402.5q-13.551-20.897-27.092-41.784a63.438 63.438 0 0 1-2.642 19.06q7.367 11.36 14.734 22.725c4.226 6.516-4.1 20.915-7.16 26.624-7.814 14.55-19.955 22.56-32.94 24.748 18.117 2.96 37.152-4.66 47.94-24.748 3.06-5.71 11.386-20.108 7.16-26.624z"></path>
</svg>
